<?xml version="1.0" standalone="no"?>
<!DOCTYPE svg PUBLIC "-//W3C//DTD SVG 20010904//EN"
 "http://www.w3.org/TR/2001/REC-SVG-20010904/DTD/svg10.dtd">
<svg version="1.0" xmlns="http://www.w3.org/2000/svg"
 width="25.000000pt" height="25.000000pt" viewBox="0 0 25.000000 25.000000"
 preserveAspectRatio="xMidYMid meet">
<metadata>
Created by potrace 1.15, written by Peter Selinger 2001-2017
</metadata>
<g transform="translate(0.000000,25.000000) scale(0.100000,-0.100000)"
fill="#000000" stroke="none">
<path d="M61 224 c-24 -31 -27 -82 -6 -110 21 -28 18 -42 -11 -46 -38 -4 -55
-35 -30 -54 27 -20 195 -20 222 0 25 19 8 50 -30 54 -29 4 -32 18 -11 46 21
28 18 79 -6 110 -29 37 -99 37 -128 0z m104 -9 c14 -13 25 -34 25 -46 0 -18
-55 -119 -65 -119 -2 0 -17 21 -34 47 -39 58 -40 94 -5 122 34 27 50 26 79 -4z"/>
</g>
</svg>
