<?xml version="1.0" encoding="utf-8"?>
<!-- Generator: Adobe Illustrator 17.0.0, SVG Export Plug-In . SVG Version: 6.00 Build 0)  -->
<!DOCTYPE svg PUBLIC "-//W3C//DTD SVG 1.1//EN" "http://www.w3.org/Graphics/SVG/1.1/DTD/svg11.dtd">
<svg version="1.1" id="Capa_1" xmlns="http://www.w3.org/2000/svg" xmlns:xlink="http://www.w3.org/1999/xlink" x="0px" y="0px"
	 width="24px" height="16px" viewBox="34.455 149 440.552 310.753" enable-background="new 34.455 149 440.552 310.753"
	 xml:space="preserve">
<g>
	<g>
		<path fill="#3876E1" d="M359.511,459.753c-27.661,0-54.71-7.604-78.305-22.002c-10.577,2.426-21.401,4.186-32.192,5.235
			L248.869,443h-8.995l-4.153-0.338c-57.518-5.132-110.073-31.915-148.01-75.418l-0.068-0.078l-0.063-0.083
			c-17.233-22.778-17.396-54.717-0.394-77.669l0.069-0.093l0.076-0.087c37.979-43.765,90.682-70.714,148.398-75.887l3.386-0.348
			h9.016l0.134,0.012c55.513,4.974,108.531,28.326,149.688,65.857c15.543-22.003,36.897-38.9,61.956-48.98
			c1.312-0.524,2.687-0.79,4.093-0.79c1.407,0,2.782,0.265,4.088,0.788c2.728,1.092,4.867,3.181,6.024,5.882
			c1.156,2.701,1.191,5.691,0.1,8.419c-10.315,25.798-17.869,52.774-22.45,80.179c-0.41,2.457-0.41,4.947,0,7.403
			c4.583,27.402,12.137,54.379,22.451,80.182c1.055,2.634,1.055,5.538-0.001,8.175c-1.681,4.199-5.689,6.913-10.213,6.913
			c-0.001,0-0.001,0-0.001,0c-1.401,0-2.776-0.266-4.086-0.79c-25.072-10.083-46.429-26.985-61.967-48.998
			c-11.575,10.493-24.138,19.932-37.438,28.13c12.229,7.39,25.112,13.821,38.358,19.148l13.213,5.294
			c2.865,1.144,5.133,3.457,6.218,6.348c2.131,5.679-0.754,12.033-6.432,14.166C395.047,456.586,377.436,459.753,359.511,459.753z
			 M312.397,428.67c15.009,5.928,31.219,9.036,47.325,9.036c4.349,0,8.711-0.223,13.05-0.666
			c-11.846-5.704-23.339-12.234-34.28-19.481C330.024,421.731,321.286,425.451,312.397,428.67z M247.849,421
			c11.495-1.135,22.984-3.161,34.171-6.025l1.223-1.983l1.912,1.196c39.858-10.498,76.323-31.397,105.532-60.496l1.493-1.503
			c2.104-2.091,4.878-3.235,7.824-3.235c0.428,0,0.859,0.025,1.284,0.075c3.403,0.415,6.354,2.332,8.112,5.26l1.84,3.064
			c8.329,13.819,19.527,25.858,32.675,35.197c-5.97-18.709-10.622-37.938-13.854-57.279c-0.804-4.841-0.804-9.748-0.001-14.586
			c3.233-19.345,7.886-38.574,13.855-57.283c-13.147,9.339-24.346,21.379-32.678,35.203l-1.837,3.06
			c-0.462,0.771-1.021,1.484-1.659,2.122c-2.077,2.071-4.836,3.212-7.77,3.212c-2.943,0-5.71-1.147-7.788-3.231l-1.515-1.523
			c-38.448-38.368-89.405-62.246-143.502-67.24l-9.576,0.233c-2.192,0.198-4.499,0.455-6.975,0.777
			c29.382,57.471,30.723,125.753,3.609,184.334c1.156,0.133,2.308,0.256,3.464,0.359L240.86,421L247.849,421L247.849,421z
			 M104.73,353.312c27.846,31.71,65.74,54.115,106.925,63.269c28.2-55.987,26.84-121.569-3.666-176.341
			c-40.427,9.815-76.211,31.53-103.619,62.903C93.474,318.24,93.618,338.37,104.73,353.312z"/>
		<path fill="#3876E1" d="M448.804,332.264c-0.464-2.778-0.464-5.614,0-8.392c4.625-27.666,12.21-54.755,22.624-80.8
			c1.642-4.102-0.352-8.758-4.454-10.4c-1.908-0.764-4.037-0.764-5.946,0c-25.48,10.25-47.282,27.935-62.568,50.752
			c-41.218-38.646-94.187-62.382-150.464-67.424h-8.728l-3.272,0.336c-56.647,5.076-109.123,31.91-146.4,74.864
			c-16.325,22.039-16.172,52.2,0.376,74.072c37.242,42.707,89.552,69.364,145.992,74.4l4.032,0.328h8.728
			c11.109-1.08,22.133-2.9,33-5.448l0.072,0.04c38.694,24.023,86.323,28.799,129.016,12.936c4.136-1.553,6.23-6.165,4.677-10.302
			c-0.791-2.108-2.434-3.784-4.525-4.618l-13.216-5.296c-14.963-6.016-29.354-13.366-43-21.96
			c15.711-9.266,30.368-20.213,43.712-32.648c15.281,22.823,37.085,40.512,62.568,50.76c4.102,1.642,8.758-0.352,10.4-4.454
			c0.764-1.908,0.764-4.037,0-5.946C461.016,387.018,453.431,359.93,448.804,332.264z M102.397,355.2
			c-11.93-15.951-12.082-37.812-0.376-53.928c28.149-32.263,65.757-54.824,107.472-64.472c32.311,56.456,33.737,125.458,3.784,183.2
			C170.277,410.971,131.368,388.232,102.397,355.2z M383.293,438.576c-26.821,4.887-54.497,1.317-79.2-10.216
			c12.535-4.108,24.73-9.19,36.472-15.2l-1.008,1.504C353.412,423.892,368.046,431.893,383.293,438.576z M408.668,358.896
			l-1.84-3.064c-1.269-2.114-3.441-3.525-5.888-3.824c-2.445-0.285-4.886,0.56-6.632,2.296l-1.504,1.512
			c-29.915,29.803-67.251,51.07-108.144,61.6l-0.448-0.28l-0.272,0.44c-11.793,3.087-23.812,5.235-35.944,6.424h-7.272l-3.304-0.304
			c-2.576-0.232-5.136-0.552-7.688-0.88c29.241-59.996,27.845-130.394-3.752-189.184c3.784-0.56,7.6-1.048,11.44-1.392l9.848-0.24
			c54.972,5.034,106.453,29.134,145.528,68.128l1.512,1.52c3.12,3.128,8.186,3.134,11.314,0.014c0.464-0.463,0.869-0.98,1.206-1.542
			l1.84-3.064c10.086-16.734,24.087-30.766,40.8-40.888c-7.257,21.181-12.758,42.924-16.448,65.008c-0.748,4.502-0.748,9.098,0,13.6
			c3.69,22.084,9.191,43.827,16.448,65.008C432.756,389.662,418.754,375.63,408.668,358.896z"/>
	</g>
</g>
<g>
	<g>
		<path fill="#3876E1" d="M159.996,347c-19.299,0-35-15.701-35-35s15.701-35,35-35c19.299,0,35,15.701,35,35
			S179.295,347,159.996,347z M159.996,299c-7.168,0-13,5.832-13,13s5.832,13,13,13s13-5.832,13-13S167.165,299,159.996,299z"/>
		<path fill="#3876E1" d="M159.996,280c-17.673,0-32,14.327-32,32s14.327,32,32,32s32-14.327,32-32S177.67,280,159.996,280z
			 M159.996,328c-8.837,0-16-7.163-16-16s7.163-16,16-16s16,7.163,16,16S168.833,328,159.996,328z"/>
	</g>
</g>
<g>
	<g>
		<path fill="#3876E1" d="M77.452,235c-23.681-0.028-42.969-19.316-42.997-42.997c0-23.714,19.29-43.003,43-43.003s43,19.29,43,43
			s-19.29,43-43,43H77.452z M77.456,171c-11.58,0-21,9.42-21,21s9.42,21,21,21s21-9.42,21-21S89.035,171,77.456,171z"/>
		<path fill="#3876E1" d="M77.456,152c-22.091,0-40,17.909-40,40c0.026,22.08,17.92,39.974,40,40c22.091,0,40-17.909,40-40
			S99.548,152,77.456,152z M77.456,216c-13.255,0-24-10.745-24-24s10.745-24,24-24s24,10.745,24,24S90.711,216,77.456,216z"/>
	</g>
</g>
</svg>
