<?xml version="1.0" encoding="utf-8"?>
<!-- Generator: Adobe Illustrator 17.0.0, SVG Export Plug-In . SVG Version: 6.00 Build 0)  -->
<!DOCTYPE svg PUBLIC "-//W3C//DTD SVG 1.1//EN" "http://www.w3.org/Graphics/SVG/1.1/DTD/svg11.dtd">
<svg version="1.1" id="Layer_1" xmlns="http://www.w3.org/2000/svg" xmlns:xlink="http://www.w3.org/1999/xlink" x="0px" y="0px"
	 width="512px" height="512px" viewBox="0 0 512 512" enable-background="new 0 0 512 512" xml:space="preserve">
<g>
	<path fill="#3876E1" d="M437.02,74.98C388.667,26.628,324.381,0,256,0S123.333,26.628,74.98,74.98C26.628,123.333,0,187.62,0,256
		s26.628,132.667,74.98,181.019C123.333,485.372,187.619,512,256,512s132.667-26.628,181.02-74.981
		C485.372,388.667,512,324.38,512,256S485.372,123.333,437.02,74.98 M256,478.609c-122.746,0-222.609-99.862-222.609-222.609
		S133.254,33.391,256,33.391S478.609,133.254,478.609,256S378.746,478.609,256,478.609"/>
	<path fill="#3876E1" d="M408.774,197.014c4.486-24.148,4.218-46.319,0.651-61.938l-2.887-12.64l-16.55-0.424l-0.426-16.551
		l-12.639-2.886c-15.618-3.568-37.789-3.833-61.936,0.65c-18.798-7.272-38.614-10.965-58.986-10.965
		c-90.286,0-163.738,73.453-163.738,163.738c0,15.294,2.093,30.305,6.22,44.811c-5.937,3.173-10.819,6.761-14.161,10.553
		c-6.462,7.331-8.36,16.208-5.207,24.357c5.571,14.399,20.412,17.064,32.337,19.203c11.408,2.047,23.204,4.165,32.333,13.293
		c9.128,9.129,11.246,20.924,13.292,32.332c2.14,11.925,4.804,26.766,19.204,32.338c2.582,0.998,5.239,1.49,7.896,1.49
		c5.727,0,11.455-2.284,16.462-6.698c3.792-3.342,7.374-8.227,10.542-14.163c14.51,4.128,29.523,6.223,44.821,6.223
		c90.286,0,163.738-73.454,163.738-163.739C419.738,235.628,416.046,215.814,408.774,197.014 M309.467,138.634
		c18.586-4.737,35.26-5.813,47.414-5.13l0.541,21.073l21.073,0.542c0.683,12.154-0.394,28.831-5.13,47.414
		c-2.149,8.435-5.369,18.452-10.154,28.969c-18.297-6.337-35.906-17.469-50.576-32.139c-14.67-14.669-25.804-32.278-32.139-50.576
		C291.014,144.004,301.031,140.784,309.467,138.634 M252.29,125.709c-13.479,7.563-26.389,16.963-37.93,28.504
		c-44.67,44.67-60.538,95.173-60.814,133.958c-7.857-0.1-15.773,0.634-23.361,2.021c-3.006-11.081-4.531-22.53-4.531-34.193
		C125.654,185.367,182.126,127.681,252.29,125.709 M187.421,382.214c-2.871-11.8-8.074-25.652-20.027-37.605
		s-25.807-17.157-37.606-20.028c11.237-2.89,25.298-4.423,37.788-1.322l16.958,4.21l4.21,16.957
		C191.843,356.913,190.31,370.975,187.421,382.214 M207.597,323.917l-16.811-2.706l-2.705-16.809
		c-2.864-17.8-0.447-38.97,6.803-59.612c8.46-24.083,23.358-47.239,43.086-66.965c4.295-4.296,8.769-8.166,13.332-11.66
		c8.169,20.708,20.958,40.046,37.722,56.811c16.764,16.766,36.103,29.552,56.81,37.722c-3.493,4.561-7.364,9.037-11.659,13.332
		c-19.728,19.727-42.883,34.626-66.966,43.086C246.568,324.366,225.399,326.783,207.597,323.917 M256,386.346
		c-11.67,0-23.127-1.526-34.214-4.539c1.387-7.585,2.129-15.499,2.044-23.353c38.784-0.278,89.292-16.148,133.958-60.816
		c11.541-11.541,20.941-24.45,28.504-37.931C384.321,329.874,326.633,386.346,256,386.346"/>
	<path fill="#3876E1" d="M331.13,147.189c6.147,0,11.13,4.983,11.13,11.13s-4.983,11.13-11.13,11.13
		c-6.146,0-11.13-4.983-11.13-11.13S324.984,147.189,331.13,147.189"/>
</g>
</svg>
