<?xml version="1.0" encoding="utf-8"?>
<!-- Generator: Adobe Illustrator 17.0.0, SVG Export Plug-In . SVG Version: 6.00 Build 0)  -->
<!DOCTYPE svg PUBLIC "-//W3C//DTD SVG 1.1//EN" "http://www.w3.org/Graphics/SVG/1.1/DTD/svg11.dtd">
<svg version="1.1" id="Layer_1" xmlns="http://www.w3.org/2000/svg" xmlns:xlink="http://www.w3.org/1999/xlink" x="0px" y="0px"
	 width="323.052px" height="512px" viewBox="0 0 323.052 512" enable-background="new 0 0 323.052 512" xml:space="preserve">
<g>
	<path fill="#3876E1" d="M322.73,443.713l-21.179-209.456c23.772-17.747,27.066-51.825,7.388-73.754v-13.091
		C308.94,66.129,242.811,0,161.525,0C80.24,0,14.11,66.129,14.11,147.414v13.091c-19.653,21.899-16.418,55.979,7.39,73.753
		L0.319,443.714C-3.367,480.156,25.278,512,62.049,512H261C297.63,512,326.432,480.296,322.73,443.713 M161.525,38.306
		c58.952,0,107.132,46.992,109.049,105.484H52.477C54.394,85.298,102.574,38.306,161.525,38.306 M51.472,182.098h220.104
		c6.565,0,11.903,5.341,11.903,11.904c0,6.563-5.339,11.902-11.903,11.902H51.472c-6.564,0-11.903-5.339-11.903-11.902
		C39.569,187.439,44.909,182.098,51.472,182.098 M93.688,473.694H62.05c-14.041,0-25.038-12.078-23.617-26.127l20.563-203.355
		h42.484L93.688,473.694z M132.017,473.694l7.789-229.482h43.439l7.79,229.482H132.017z M261,473.694h-31.638l-7.79-229.482h42.485
		l20.562,203.355C286.032,461.556,275.098,473.694,261,473.694"/>
	<path fill="#3876E1" d="M118.011,86.198c9.988,0,18.084,8.096,18.084,18.084c0,9.987-8.096,18.084-18.084,18.084
		c-9.987,0-18.084-8.097-18.084-18.084C99.927,94.294,108.024,86.198,118.011,86.198"/>
	<path fill="#3876E1" d="M205.03,86.198c9.987,0,18.084,8.096,18.084,18.084c0,9.987-8.097,18.084-18.084,18.084
		c-9.987,0-18.084-8.097-18.084-18.084C186.946,94.294,195.043,86.198,205.03,86.198"/>
</g>
</svg>
