<?xml version="1.0" encoding="utf-8"?>
<!-- Generator: Adobe Illustrator 17.0.0, SVG Export Plug-In . SVG Version: 6.00 Build 0)  -->
<!DOCTYPE svg PUBLIC "-//W3C//DTD SVG 1.1//EN" "http://www.w3.org/Graphics/SVG/1.1/DTD/svg11.dtd">
<svg version="1.1" id="Layer_1" xmlns="http://www.w3.org/2000/svg" xmlns:xlink="http://www.w3.org/1999/xlink" x="0px" y="0px"
	 width="612.003px" height="700.235px" viewBox="0 0 612.003 700.235" enable-background="new 0 0 612.003 700.235"
	 xml:space="preserve">
<g>
	<path fill="#3876E1" d="M601.412,495.815l-75.609-43.689l63.832-38.015c10.261-4.944,13.437-18.725,7.601-28.856
		c-5.94-10.375-18.763-12.562-28.498-6.889l-85.106,49.848l-135.259-78.705l135.258-77.893l85.106,49.767
		c2.658,1.946,6.078,3.08,9.882,3.08c7.213,0,13.674-3.403,18.616-9.888c5.699-10.294,2.66-23.911-7.601-28.855l-63.832-38.015
		l75.609-43.688c9.855-5.675,13.243-18.4,7.602-28.856c-5.389-10.052-18.723-13.536-28.879-7.619l-75.991,44.093l-1.134-76.029
		c-0.178-11.753-9.119-21.237-20.897-21.237c-11.774,0-20.983,10.213-20.894,21.237l0.754,100.346l-134.497,77.894V155.789
		l84.728-48.309c9.891-5.593,14.2-18.643,8.356-28.855c-5.933-10.375-18.115-13.456-28.498-7.62l-64.586,36.476V21.236
		c0-11.753-9.5-21.235-21.276-21.235c-11.777,0-20.896,9.482-20.896,21.235v87.054l-66.871-37.286
		c-10.416-5.754-22.274-2.512-28.118,7.62c-5.933,10.375-2.245,23.101,7.975,28.855l87.014,49.039v156.518l-137.542-79.353
		l0.762-98.077c1.142-11.023-8.738-21.237-20.515-21.237h-0.763c-11.016,0-20.773,9.484-20.895,21.237l-0.762,73.76l-74.084-42.554
		c-10.343-5.998-23.11-2.433-28.499,7.538c-5.642,10.537-2.724,22.939,7.603,28.937l74.846,43.282L20.1,285.72
		c-10.255,4.945-13.458,18.723-7.215,28.856c4.02,6.566,9.873,9.888,17.856,9.888c4.173,0,7.65-1.053,11.015-3.08l85.489-50.497
		l137.162,78.624l-137.162,79.434l-85.489-50.578c-10.262-5.998-23.49-3.161-28.872,6.889c-5.642,10.456-2.578,23.021,7.214,28.856
		l65.355,38.744l-74.847,43.689c-10.302,5.998-13.642,18.643-7.603,28.937c4.223,7.133,9.882,10.618,17.858,10.618
		c1.897,0,5.697-1.135,10.643-3.08l74.084-42.554l0.762,73.76c0.122,11.753,9.88,20.831,20.895,20.831h0.763
		c11.777,0,20.604-9.807,20.515-21.641l-0.762-97.996l137.542-78.624v155.708l-87.014,49.038
		c-10.382,5.836-14.014,18.561-7.975,28.855c4.223,7.215,9.881,10.699,17.856,10.699c3.802,0,7.303-0.647,10.262-2.35l66.871-37.936
		v88.514c0,11.753,9.119,20.912,20.896,20.912c11.776,0,21.276-9.159,21.276-20.912v-87.055l64.586,36.477
		c2.957,1.702,6.459,2.35,9.881,2.35c8.356,0,14.517-3.403,18.617-10.699c5.772-10.213,2.043-23.02-8.356-28.855l-84.728-47.498
		V385.986l134.497,77.893l-0.754,99.537c-0.098,11.834,9.119,21.641,20.896,21.641c11.777,0,20.717-9.078,20.895-20.831
		l1.134-76.434l75.991,44.499c2.934,1.702,6.84,2.27,11.023,2.27c7.977,0,13.827-3.323,17.855-9.89
		C615.248,514.539,611.266,501.49,601.412,495.815"/>
</g>
</svg>
