<?xml version="1.0" encoding="utf-8"?>
<!-- Generator: Adobe Illustrator 17.0.0, SVG Export Plug-In . SVG Version: 6.00 Build 0)  -->
<!DOCTYPE svg PUBLIC "-//W3C//DTD SVG 1.1//EN" "http://www.w3.org/Graphics/SVG/1.1/DTD/svg11.dtd">
<svg version="1.1" id="Layer_1" xmlns="http://www.w3.org/2000/svg" xmlns:xlink="http://www.w3.org/1999/xlink" x="0px" y="0px"
	 width="119.417px" height="107.792px" viewBox="0 0 119.417 107.792" enable-background="new 0 0 119.417 107.792"
	 xml:space="preserve">
<g>
	<g>
		<path fill="#4972B8" d="M53.853,42.499c3.849,0,6.981-3.141,6.981-7c0-3.859-3.133-7-6.981-7c-3.849,0-6.981,3.141-6.981,7
			C46.872,39.358,50.003,42.499,53.853,42.499z M53.853,30.499c2.75,0,4.987,2.243,4.987,5c0,2.757-2.237,5-4.987,5
			c-2.75,0-4.987-2.243-4.987-5C48.866,32.742,51.103,30.499,53.853,30.499z M73.08,53.5h-7.142l3.039-4.4
			c5.74-7.671,4.909-20.28-1.776-26.982c-3.611-3.622-8.414-5.617-13.524-5.617c-5.108,0-9.912,1.995-13.524,5.617
			c-6.685,6.702-7.516,19.312-1.799,26.952l3.06,4.431H33.92L22.997,76.5h61.005L73.08,53.5z M39.972,47.899
			c-5.185-6.933-4.442-18.32,1.592-24.369c3.235-3.244,7.538-5.031,12.114-5.031s8.877,1.787,12.114,5.031
			c6.034,6.049,6.777,17.437,1.569,24.399L53.676,67.743L43.839,53.5L39.972,47.899z M35.181,55.5h7.614l10.882,15.757L64.557,55.5
			h7.262l9.024,19H26.157L35.181,55.5z"/>
	</g>
</g>
</svg>
