<?xml version="1.0" encoding="utf-8"?>
<!-- Generator: Adobe Illustrator 17.0.0, SVG Export Plug-In . SVG Version: 6.00 Build 0)  -->
<!DOCTYPE svg PUBLIC "-//W3C//DTD SVG 1.1//EN" "http://www.w3.org/Graphics/SVG/1.1/DTD/svg11.dtd">
<svg version="1.1" id="Layer_1" xmlns="http://www.w3.org/2000/svg" xmlns:xlink="http://www.w3.org/1999/xlink" x="0px" y="0px"
	 width="119.417px" height="107.792px" viewBox="0 0 119.417 107.792" enable-background="new 0 0 119.417 107.792"
	 xml:space="preserve">
<g>
	<g>
		<path fill="#4972B8" d="M53.5,42.5c3.86,0,7-3.141,7-7s-3.14-7-7-7s-7,3.141-7,7S49.64,42.5,53.5,42.5z M53.5,30.5
			c2.757,0,5,2.243,5,5s-2.243,5-5,5s-5-2.243-5-5S50.743,30.5,53.5,30.5z M53.323,71.257L68.664,49.1
			c5.754-7.671,4.922-20.28-1.781-26.982c-3.622-3.623-8.438-5.618-13.56-5.618s-9.938,1.995-13.56,5.617
			c-6.703,6.702-7.535,19.311-1.804,26.952L53.323,71.257z M41.177,23.531c3.245-3.244,7.558-5.031,12.146-5.031
			s8.901,1.787,12.146,5.031c6.05,6.049,6.795,17.437,1.573,24.399L53.323,67.743L39.582,47.9
			C34.382,40.968,35.128,29.58,41.177,23.531z M65.617,59.507c-0.55-0.067-1.046,0.327-1.11,0.876
			c-0.064,0.549,0.328,1.046,0.876,1.11C75.899,62.731,81.5,66.067,81.5,68c0,2.714-10.652,6.5-28,6.5s-28-3.786-28-6.5
			c0-1.933,5.601-5.269,16.117-6.507c0.548-0.064,0.94-0.562,0.876-1.11c-0.065-0.549-0.561-0.945-1.11-0.876
			C30.854,60.747,23.5,64.239,23.5,68c0,4.224,10.305,8.5,30,8.5s30-4.276,30-8.5C83.5,64.239,76.146,60.747,65.617,59.507z"/>
	</g>
</g>
</svg>
