<?xml version="1.0" encoding="utf-8"?>
<!-- Generator: Adobe Illustrator 17.0.0, SVG Export Plug-In . SVG Version: 6.00 Build 0)  -->
<!DOCTYPE svg PUBLIC "-//W3C//DTD SVG 1.1//EN" "http://www.w3.org/Graphics/SVG/1.1/DTD/svg11.dtd">
<svg version="1.1" id="Layer_1" xmlns="http://www.w3.org/2000/svg" xmlns:xlink="http://www.w3.org/1999/xlink" x="0px" y="0px"
	 width="14px" height="18px" viewBox="0 0 416 520" enable-background="new 0 0 416 520" xml:space="preserve">
<g>
	<path fill="#3876E0" d="M64,520c-35.289,0-64-28.71-64-64V252c0-35.29,28.711-64,64-64h31.963v-78.23
		c0-60.527,50.243-109.77,112-109.77s112,49.243,112,109.77V188H352c35.29,0,64,28.71,64,64v204c0,35.29-28.71,64-64,64H64z M64,236
		c-8.822,0-16,7.178-16,16v204c0,8.822,7.178,16,16,16h288c8.822,0,16-7.178,16-16V252c0-8.822-7.178-16-16-16H64z M271.963,188
		v-78.23c0-34.06-28.71-61.77-64-61.77s-64,27.71-64,61.77V188H271.963z"/>
	<path fill="#3876E0" d="M352,192h-36.037v-82.23c0-58.322-48.449-105.77-108-105.77s-108,47.448-108,105.77V192H64
		c-33.084,0-60,26.916-60,60v204c0,33.084,26.916,60,60,60h288c33.084,0,60-26.916,60-60V252C412,218.916,385.084,192,352,192
		 M139.963,109.77c0-36.266,30.505-65.77,68-65.77s68,29.504,68,65.77V192h-136V109.77z M372,456c0,11.028-8.972,20-20,20H64
		c-11.028,0-20-8.972-20-20V252c0-11.028,8.972-20,20-20h288c11.028,0,20,8.972,20,20V456z"/>
	<path fill="#3876E0" d="M207.963,426c-13.233,0-24-10.767-24-24v-41.794C173.301,352.492,167,340.238,167,327
		c0-22.607,18.393-41,41-41c22.608,0,41,18.393,41,41c0,13.275-6.328,25.549-17.037,33.26V402
		C231.963,415.233,221.196,426,207.963,426"/>
	<path fill="#3876E0" d="M208,290c-20.435,0-37,16.565-37,37c0,13.048,6.76,24.51,16.963,31.098V402c0,11.045,8.954,20,20,20
		c11.045,0,20-8.955,20-20v-43.855C238.207,351.565,245,340.08,245,327C245,306.565,228.435,290,208,290"/>
</g>
</svg>
