<?xml version="1.0" encoding="utf-8"?>
<!-- Generator: Adobe Illustrator 17.0.0, SVG Export Plug-In . SVG Version: 6.00 Build 0)  -->
<!DOCTYPE svg PUBLIC "-//W3C//DTD SVG 1.1//EN" "http://www.w3.org/Graphics/SVG/1.1/DTD/svg11.dtd">
<svg version="1.1" id="Layer_1" xmlns="http://www.w3.org/2000/svg" xmlns:xlink="http://www.w3.org/1999/xlink" x="0px" y="0px"
	 width="19px" height="18px" viewBox="0 0 116.1 107.3" enable-background="new 0 0 116.1 107.3" xml:space="preserve">
<g>
	<path fill="#3876E1" d="M4.1,107.3H112c2.3,0,4.1-1.8,4.1-4.1V11.7c0-2.3-1.8-4.1-4.1-4.1H91.7V4.1c0-2.3-1.8-4.1-4.1-4.1
		c-2.3,0-4.1,1.8-4.1,4.1v3.5H33.3V4.1c0-2.3-1.8-4.1-4.1-4.1s-4.1,1.8-4.1,4.1v3.5h-21C1.8,7.6,0,9.4,0,11.7v91.6
		C0,105.5,1.9,107.3,4.1,107.3 M8.2,15.8h16.9V18c0,2.3,1.8,4.1,4.1,4.1s4.1-1.8,4.1-4.1v-2.2h50.2V18c0,2.3,1.8,4.1,4.1,4.1
		c2.3,0,4.1-1.8,4.1-4.1v-2.2H108v10.6H8.2V15.8z M8.2,34.6h99.7v64.6H8.2V34.6z"/>
	<path fill="#3876E1" d="M87.6,53.4h-59c-2.3,0-4.1,1.8-4.1,4.1c0,2.299,1.8,4.1,4.1,4.1h59c2.3,0,4.1-1.801,4.1-4.1
		C91.7,55.2,89.9,53.4,87.6,53.4"/>
	<path fill="#3876E1" d="M58.1,73.2H28.6c-2.3,0-4.1,1.8-4.1,4.1c0,2.3,1.8,4.1,4.1,4.1h29.5c2.3,0,4.1-1.8,4.1-4.1
		C62.2,75,60.4,73.2,58.1,73.2"/>
</g>
</svg>
