<?xml version="1.0" standalone="no"?>
<!DOCTYPE svg PUBLIC "-//W3C//DTD SVG 20010904//EN"
 "http://www.w3.org/TR/2001/REC-SVG-20010904/DTD/svg10.dtd">
<svg version="1.0" xmlns="http://www.w3.org/2000/svg"
 width="24.000000pt" height="24.000000pt" viewBox="0 0 24.000000 24.000000"
 preserveAspectRatio="xMidYMid meet">
<metadata>
Created by potrace 1.15, written by Peter Selinger 2001-2017
</metadata>
<g transform="translate(0.000000,24.000000) scale(0.100000,-0.100000)"
fill="#000000" stroke="none">
<path d="M0 231 c0 -5 9 -13 20 -16 18 -6 20 -15 20 -79 0 -88 20 -136 56
-136 17 0 24 5 24 20 0 15 7 20 25 20 19 0 25 -5 25 -21 0 -16 5 -20 28 -17
21 2 27 8 27 28 0 24 -2 25 -75 28 -108 4 -114 22 -7 22 83 0 87 1 93 24 3 13
4 34 2 47 -3 25 -6 25 -129 43 -35 5 -48 12 -52 26 -3 14 -14 20 -31 20 -14 0
-26 -4 -26 -9z"/>
</g>
</svg>
