<?xml version="1.0" encoding="utf-8"?>
<!-- Generator: Adobe Illustrator 17.0.0, SVG Export Plug-In . SVG Version: 6.00 Build 0)  -->
<!DOCTYPE svg PUBLIC "-//W3C//DTD SVG 1.1//EN" "http://www.w3.org/Graphics/SVG/1.1/DTD/svg11.dtd">
<svg version="1.1" id="Layer_1" xmlns="http://www.w3.org/2000/svg" xmlns:xlink="http://www.w3.org/1999/xlink" x="0px" y="0px"
	 width="26" height="26" viewBox="0 0 511.533 511.533" enable-background="new 0 0 511.533 511.999"
	 xml:space="preserve">
<g>
	<path fill="#1E2D41" d="M125.535,153.902C56.315,153.902,0,210.217,0,279.438c0,42.976,20.444,89.184,60.765,137.341
		c5.991,7.154,11.961,13.785,17.69,19.834c-26.034,7.105-41.665,19.873-41.665,34.773c0,26.379,45.722,40.613,88.741,40.613
		c43.02,0,88.741-14.235,88.741-40.613c0-14.889-15.626-27.659-41.643-34.768c10.394-10.973,21.578-23.882,32.19-38.283
		c2.46-3.339,1.748-8.038-1.59-10.498c-3.336-2.457-8.038-1.747-10.498,1.591c-12.812,17.388-26.68,32.667-38.781,44.805
		c-1.387,0.708-2.547,1.832-3.274,3.249c-10.84,10.652-19.962,18.555-25.138,22.874c-5.119-4.277-14.102-12.072-24.803-22.587
		c-0.768-1.683-2.117-3.003-3.763-3.738c-34.007-34.206-81.957-93.302-81.957-154.591c0-60.941,49.579-110.52,110.519-110.52
		s110.519,49.579,110.519,110.52c0,26.612-9.068,55.352-26.952,85.422c-2.119,3.564-0.949,8.171,2.615,10.291
		c3.564,2.119,8.172,0.948,10.291-2.616c19.284-32.423,29.062-63.746,29.062-93.097C251.07,210.217,194.755,153.902,125.535,153.902
		 M120.94,475.971c1.352,1.047,2.974,1.57,4.595,1.57c1.621,0,3.242-0.523,4.595-1.57c0.921-0.713,13.467-10.497,30.19-26.848
		c25.322,5.164,38.938,15.108,38.938,22.264c0,5.346-7.326,11.651-19.119,16.456c-14.464,5.896-33.857,9.143-54.607,9.143
		c-45.006,0-73.726-15.162-73.726-25.599c0-7.167,13.62-17.104,38.956-22.269C107.578,465.567,120.142,475.353,120.94,475.971"/>
	<path fill="#1E2D41" d="M125.535,224.854c-11.875,0-23.167,3.749-32.655,10.842c-3.32,2.483-4,7.188-1.518,10.509
		c2.484,3.32,7.189,3.999,10.509,1.518c6.871-5.137,15.054-7.853,23.663-7.853c21.817,0,39.566,17.749,39.566,39.567
		c0,21.817-17.749,39.566-39.566,39.566s-39.566-17.75-39.566-39.566c0-3.723,0.515-7.404,1.53-10.938
		c1.144-3.985-1.159-8.143-5.144-9.288c-3.984-1.14-8.143,1.16-9.288,5.145c-1.401,4.883-2.112,9.956-2.112,15.081
		c0,30.096,24.485,54.582,54.582,54.582c30.096,0,54.582-24.485,54.582-54.582C180.117,249.34,155.631,224.854,125.535,224.854"/>
	<path fill="#1E2D41" d="M452.725,218.121c3.82-4.099,7.755-8.515,11.701-13.229c31.258-37.333,47.107-73.222,47.107-106.672
		c0-54.158-44.061-98.22-98.219-98.22c-39.563,0-75.086,23.546-90.497,59.986c-1.616,3.82,0.171,8.225,3.989,9.84
		c3.818,1.613,8.225-0.172,9.839-3.99c13.058-30.872,43.152-50.821,76.669-50.821c45.879,0,83.204,37.326,83.204,83.206
		c0,62.043-65.138,121.483-83.207,136.774c-3.981-3.365-10.25-8.873-17.599-16.077c-0.733-1.453-1.917-2.605-3.338-3.318
		c-25.924-26.101-62.264-70.968-62.264-117.379c0-4.147-3.36-7.509-7.508-7.509c-4.145,0-7.508,3.362-7.508,7.509
		c0,33.449,15.849,69.338,47.108,106.672c3.945,4.711,7.878,9.125,11.695,13.224c-19.354,5.815-30.526,15.712-30.526,27.631
		c0,10.052,8.153,18.912,22.962,24.945c12.669,5.163,29.354,8.007,46.98,8.007c17.625,0,34.311-2.844,46.981-8.007
		c14.805-6.034,22.959-14.894,22.959-24.946C483.252,233.85,472.071,223.943,452.725,218.121 M413.312,263.682
		c-35.539,0-54.926-11.848-54.926-17.936c0-3.966,8.82-11.224,27.651-15.228c12.671,12.33,22.076,19.655,22.683,20.126
		c1.353,1.047,2.974,1.57,4.595,1.57s3.241-0.523,4.595-1.57c0.607-0.469,10.01-7.795,22.681-20.124
		c8.39,1.789,15.659,4.411,20.744,7.506c4.323,2.635,6.904,5.52,6.904,7.72C468.237,251.834,448.85,263.682,413.312,263.682"/>
	<path fill="#1E2D41" d="M413.314,54.532c-24.089,0-43.687,19.598-43.687,43.689c0,24.089,19.597,43.687,43.687,43.687
		s43.689-19.597,43.689-43.687S437.404,54.532,413.314,54.532 M413.315,126.892c-15.812,0-28.673-12.862-28.673-28.672
		s12.862-28.673,28.673-28.673c15.811,0,28.673,12.862,28.673,28.673C441.987,114.03,429.126,126.892,413.315,126.892"/>
	<path fill="#1E2D41" d="M315.924,238.239h-3.429c-2.495,0-5.004,0.165-7.457,0.492c-4.109,0.547-6.998,4.321-6.452,8.433
		c0.503,3.775,3.727,6.519,7.433,6.519c0.33,0,0.664-0.021,1-0.066c1.799-0.239,3.641-0.36,5.478-0.36h3.427v-0.001
		c4.146,0,7.508-3.36,7.508-7.508C323.432,241.6,320.07,238.239,315.924,238.239"/>
	<path fill="#1E2D41" d="M291.103,463.496h-0.035l-9.916,0.045c-4.146,0.018-7.492,3.396-7.474,7.542
		c0.018,4.135,3.377,7.474,7.507,7.474h0.035l9.916-0.045c4.146-0.019,7.492-3.396,7.474-7.542
		C298.592,466.834,295.234,463.496,291.103,463.496"/>
	<path fill="#1E2D41" d="M324.833,335.489h-9.916c-4.147,0-7.509,3.361-7.509,7.508c0,4.146,3.361,7.508,7.509,7.508h9.916
		c4.146,0,7.508-3.361,7.508-7.508C332.341,338.85,328.98,335.489,324.833,335.489"/>
	<path fill="#1E2D41" d="M285.051,253.536c-2.812-3.046-7.56-3.238-10.609-0.428c-2.799,2.581-5.345,5.458-7.567,8.552
		c-2.419,3.369-1.649,8.06,1.719,10.479c1.325,0.952,2.856,1.41,4.374,1.41c2.335,0,4.637-1.087,6.104-3.129
		c1.629-2.269,3.498-4.381,5.551-6.276C287.671,261.334,287.862,256.584,285.051,253.536"/>
	<path fill="#1E2D41" d="M330.769,463.314h-0.035l-9.915,0.045c-4.146,0.017-7.492,3.395-7.474,7.542
		c0.018,4.135,3.377,7.474,7.507,7.474h0.035l9.915-0.045c4.146-0.019,7.492-3.397,7.474-7.542
		C338.257,466.654,334.899,463.314,330.769,463.314"/>
	<path fill="#1E2D41" d="M251.438,463.675h-0.035l-9.916,0.045c-4.146,0.019-7.492,3.396-7.474,7.542
		c0.019,4.136,3.375,7.475,7.507,7.475h0.035l9.916-0.045c4.146-0.02,7.492-3.397,7.474-7.542
		C258.927,467.013,255.569,463.675,251.438,463.675"/>
	<path fill="#1E2D41" d="M290.596,329.178c-2.359-1.487-4.578-3.226-6.593-5.163c-2.989-2.875-7.743-2.779-10.616,0.206
		c-2.875,2.988-2.782,7.741,0.206,10.615c2.748,2.643,5.773,5.012,8.991,7.042c1.243,0.785,2.629,1.159,3.999,1.159
		c2.492,0,4.929-1.239,6.358-3.504C295.154,336.028,294.103,331.39,290.596,329.178"/>
	<path fill="#1E2D41" d="M272.14,302.287c-0.504-2.588-0.76-5.25-0.76-7.914l0.002-0.417c0.049-4.147-3.273-7.546-7.42-7.594
		c-0.029-0.001-0.059-0.001-0.089-0.001c-4.106,0-7.458,3.304-7.506,7.421l-0.003,0.592c0,3.626,0.349,7.255,1.037,10.786
		c0.698,3.585,3.84,6.072,7.361,6.072c0.475,0,0.959-0.046,1.442-0.14C270.276,310.299,272.932,306.357,272.14,302.287"/>
	<path fill="#1E2D41" d="M364.5,335.489h-9.916c-4.147,0-7.509,3.361-7.509,7.508c0,4.146,3.362,7.508,7.509,7.508h9.916
		c4.146,0,7.508-3.361,7.508-7.508C372.008,338.85,368.646,335.489,364.5,335.489"/>
	<path fill="#1E2D41" d="M485.041,350.775c-2.894-2.283-5.985-4.357-9.192-6.162c-3.61-2.036-8.191-0.757-10.226,2.855
		c-2.035,3.613-0.758,8.193,2.856,10.227c2.53,1.427,4.971,3.062,7.254,4.865c1.38,1.09,3.019,1.616,4.649,1.616
		c2.218,0,4.416-0.979,5.897-2.855C488.85,358.066,488.296,353.343,485.041,350.775"/>
	<path fill="#1E2D41" d="M457.172,468.694c-0.57-4.107-4.366-6.982-8.465-6.41c-2.459,0.34-4.977,0.518-7.488,0.528l-1.405,0.008
		c-4.147,0.02-7.493,3.398-7.472,7.544c0.02,4.134,3.378,7.472,7.507,7.472h0.037l1.402-0.007c3.171-0.014,6.359-0.239,9.474-0.67
		C454.87,476.59,457.739,472.799,457.172,468.694"/>
	<path fill="#1E2D41" d="M490.307,447.581c-2.861-3.004-7.614-3.119-10.614-0.258c-2.107,2.007-4.387,3.864-6.778,5.523
		c-3.407,2.362-4.254,7.04-1.893,10.449c1.459,2.103,3.798,3.231,6.177,3.231c1.476,0,2.966-0.434,4.271-1.339
		c3.025-2.098,5.913-4.45,8.58-6.991C493.053,455.335,493.167,450.582,490.307,447.581"/>
	<path fill="#1E2D41" d="M504.919,411.118c-4.069-0.768-7.999,1.913-8.768,5.988c-0.539,2.857-1.304,5.692-2.279,8.428
		c-1.392,3.905,0.645,8.2,4.551,9.593c0.833,0.297,1.684,0.438,2.521,0.438c3.084,0,5.977-1.916,7.073-4.988
		c1.237-3.47,2.21-7.067,2.892-10.692C511.675,415.809,508.992,411.884,504.919,411.118"/>
	<path fill="#1E2D41" d="M509.379,386.984c-1.019-3.545-2.324-7.037-3.887-10.385c-1.754-3.758-6.217-5.382-9.978-3.63
		c-3.757,1.754-5.382,6.222-3.629,9.98c1.229,2.635,2.26,5.387,3.06,8.177c0.946,3.293,3.95,5.439,7.213,5.439
		c0.688,0,1.384-0.096,2.075-0.293C508.219,395.127,510.522,390.968,509.379,386.984"/>
	<path fill="#1E2D41" d="M404.166,335.489h-9.916c-4.147,0-7.509,3.361-7.509,7.508c0,4.146,3.361,7.508,7.509,7.508h9.916
		c4.146,0,7.508-3.361,7.508-7.508C411.674,338.85,408.312,335.489,404.166,335.489"/>
	<path fill="#1E2D41" d="M370.435,463.134H370.4l-9.916,0.045c-4.146,0.018-7.492,3.396-7.474,7.542
		c0.019,4.136,3.377,7.475,7.507,7.475h0.035l9.916-0.045c4.146-0.02,7.492-3.397,7.474-7.542
		C377.924,466.473,374.565,463.134,370.435,463.134"/>
	<path fill="#1E2D41" d="M444.161,335.561c-1.062-0.048-2.138-0.07-3.195-0.07h-7.051c-4.148,0-7.509,3.361-7.509,7.507
		c0,4.147,3.36,7.508,7.509,7.508h7.051v-0.001c0.848,0,1.692,0.02,2.532,0.056c0.112,0.007,0.226,0.009,0.338,0.009
		c3.993,0,7.316-3.147,7.493-7.176C451.513,339.25,448.304,335.745,444.161,335.561"/>
	<path fill="#1E2D41" d="M410.1,462.955h-0.035L400.149,463c-4.146,0.017-7.492,3.396-7.474,7.542
		c0.019,4.135,3.377,7.474,7.507,7.474h0.035l9.916-0.045c4.146-0.019,7.492-3.396,7.474-7.542
		C417.589,466.293,414.231,462.955,410.1,462.955"/>
</g>
</svg>
