<?xml version="1.0" encoding="utf-8"?>
<!-- Generator: Adobe Illustrator 16.0.0, SVG Export Plug-In . SVG Version: 6.00 Build 0)  -->
<!DOCTYPE svg PUBLIC "-//W3C//DTD SVG 1.1//EN" "http://www.w3.org/Graphics/SVG/1.1/DTD/svg11.dtd">
<svg version="1.1" id="Capa_1" xmlns="http://www.w3.org/2000/svg" xmlns:xlink="http://www.w3.org/1999/xlink" x="0px" y="0px"
	 width="512px" height="512px" viewBox="0 0 512 512" enable-background="new 0 0 512 512" xml:space="preserve">
<g>
	<path fill="#CACACA" d="M383.979,0.109l-66.395-0.106c-74.591,0-122.795,49.456-122.795,126.002v58.096h-66.757
		c-5.769,0-10.439,4.676-10.439,10.445v84.175c0,5.768,4.676,10.439,10.439,10.439h66.757v212.397
		c0,5.769,4.671,10.439,10.439,10.439h87.098c5.769,0,10.439-4.677,10.439-10.439V289.16h78.055c5.769,0,10.439-4.672,10.439-10.439
		l0.032-84.175c0-2.77-1.103-5.422-3.058-7.382s-4.618-3.062-7.388-3.062h-78.081v-49.249c0-23.671,5.642-35.688,36.477-35.688
		l44.726-0.016c5.764,0,10.435-4.677,10.435-10.44V10.549C394.402,4.791,389.736,0.12,383.979,0.109z"/>
</g>
</svg>
