<?xml version="1.0" encoding="utf-8"?>
<!-- Generator: Adobe Illustrator 17.0.0, SVG Export Plug-In . SVG Version: 6.00 Build 0)  -->
<!DOCTYPE svg PUBLIC "-//W3C//DTD SVG 1.1//EN" "http://www.w3.org/Graphics/SVG/1.1/DTD/svg11.dtd">
<svg version="1.1" id="Capa_1" xmlns="http://www.w3.org/2000/svg" xmlns:xlink="http://www.w3.org/1999/xlink" x="0px" y="0px"
	 width="56px" height="64px" viewBox="0 0 841.89 595.28" enable-background="new 0 0 841.89 595.28" xml:space="preserve">
<g>
	<path fill="#3876E1" d="M321.732,486.145c-21.886,0-39.685,17.799-39.685,39.685c0,21.886,17.799,39.685,39.685,39.685
		c21.886,0,39.685-17.799,39.685-39.685C361.417,503.944,343.618,486.145,321.732,486.145z M321.732,545.673
		c-10.943,0-19.843-8.899-19.843-19.843s8.899-19.843,19.843-19.843s19.843,8.899,19.843,19.843S332.675,545.673,321.732,545.673z"
		/>
	<path fill="#3876E1" d="M291.968,49.607h39.685c5.477,0,9.921-4.435,9.921-9.921s-4.445-9.921-9.921-9.921h-39.685
		c-5.477,0-9.921,4.435-9.921,9.921S286.491,49.607,291.968,49.607z"/>
	<path fill="#3876E1" d="M361.417,49.607h9.921c5.477,0,9.921-4.435,9.921-9.921s-4.445-9.921-9.921-9.921h-9.921
		c-5.477,0-9.921,4.435-9.921,9.921S355.94,49.607,361.417,49.607z"/>
	<path fill="#3876E1" d="M678.9,119.056H500.316V43.703C500.316,19.614,480.711,0,456.612,0H206.694
		c-24.099,0-43.703,19.614-43.703,43.703v507.863c0,24.099,19.605,43.713,43.703,43.713h249.908
		c24.109,0,43.713-19.614,43.713-43.703V327.404H678.9V119.056z M206.694,19.843h249.908c13.166,0,23.871,10.705,23.871,23.861
		v15.825h-297.64V43.703C182.833,30.548,193.538,19.843,206.694,19.843z M456.612,575.437H206.694
		c-13.156,0-23.861-10.705-23.861-23.861v-75.353h297.64v75.353C480.473,564.732,469.768,575.437,456.612,575.437z M480.473,456.381
		h-297.64V79.371h297.64v39.685H301.889v208.348h39.685v69.449l92.596-69.449h46.303V456.381z M659.057,307.561H500.316h-72.753
		l-66.146,49.607v-49.607h-39.685V138.899h178.584h158.741V307.561z"/>
	<path fill="#3876E1" d="M371.338,208.348h99.213c5.477,0,9.921-4.435,9.921-9.921s-4.445-9.921-9.921-9.921h-99.213
		c-5.477,0-9.921,4.435-9.921,9.921S365.862,208.348,371.338,208.348z"/>
	<path fill="#3876E1" d="M361.417,248.033c0,5.486,4.445,9.921,9.921,9.921H609.45c5.477,0,9.921-4.435,9.921-9.921
		s-4.445-9.921-9.921-9.921H371.338C365.862,238.112,361.417,242.547,361.417,248.033z"/>
</g>
</svg>
