<?xml version="1.0" encoding="utf-8"?>
<!-- Generator: Adobe Illustrator 17.0.0, SVG Export Plug-In . SVG Version: 6.00 Build 0)  -->
<!DOCTYPE svg PUBLIC "-//W3C//DTD SVG 1.1//EN" "http://www.w3.org/Graphics/SVG/1.1/DTD/svg11.dtd">
<svg version="1.1" id="Layer_1" xmlns="http://www.w3.org/2000/svg" xmlns:xlink="http://www.w3.org/1999/xlink" x="0px" y="0px"
	 width="62px" height="45px" viewBox="0 0 44 32" enable-background="new 0 0 44 32" xml:space="preserve">
<g>
	<path fill="#3876E1" d="M43,0H1C0.447,0,0,0.447,0,1v30c0,0.553,0.447,1,1,1h42c0.552,0,1-0.447,1-1V1
		C44,0.447,43.552,0,43,0 M42,27.581L29.612,15.194l-1.414,1.414L41.59,30H2.41l13.392-13.392l-1.414-1.414L2,27.581V2h40V27.581z"
		/>
	<path fill="#3876E1" d="M39.979,2L22,19.979L4.021,2H2v0.807L21.292,22.1
		c0.392,0.391,1.023,0.391,1.415,0L42,2.807V2H39.979z"/>
</g>
</svg>
