<?xml version="1.0" encoding="utf-8"?>
<!-- Generator: Adobe Illustrator 17.0.0, SVG Export Plug-In . SVG Version: 6.00 Build 0)  -->
<!DOCTYPE svg PUBLIC "-//W3C//DTD SVG 1.1//EN" "http://www.w3.org/Graphics/SVG/1.1/DTD/svg11.dtd">
<svg version="1.1" id="Capa_1" xmlns="http://www.w3.org/2000/svg" xmlns:xlink="http://www.w3.org/1999/xlink" x="0px" y="0px"
	 width="59px" height="64px" viewBox="0 0 486.569 486.569" enable-background="new 0 0 486.569 486.569"
	 xml:space="preserve">
<path fill="#3876E1" d="M401.069,483.569c-28.397,0-51.5-23.103-51.5-51.5c0-9.173,2.448-18.153,7.081-25.971l2.684-4.529H227.37
	l2.727,4.544c4.626,7.711,7.072,16.687,7.072,25.956c0,28.397-23.103,51.5-51.5,51.5s-51.5-23.103-51.5-51.5
	c0-9.237,2.55-18.388,7.375-26.461l2.348-3.928l-4.539-0.587c-25.93-3.349-45.484-25.586-45.484-51.725V51.579L26.636,23.205
	c-2.599-1.092-4.608-3.121-5.662-5.715c-1.054-2.595-1.033-5.457,0.061-8.059C22.677,5.524,26.471,3,30.701,3
	c1.407,0,2.789,0.281,4.106,0.834l73.616,30.965c0.214,0.104,0.447,0.208,0.68,0.312c0.101,0.045,0.202,0.089,0.3,0.134l0.091,0.091
	l0.439,0.219c0.069,0.039,0.17,0.106,0.282,0.182c0.117,0.101,0.234,0.192,0.353,0.281c0.009,0.006,0.013,0.009,0.015,0.009
	c0.003,0-0.017-0.019-0.038-0.04c0.209,0.208,0.413,0.358,0.557,0.458l0.053,0.053l0.25,0.167c0.046,0.031,0.094,0.076,0.243,0.225
	l0.966,0.966c0.059,0.083,0.112,0.155,0.155,0.212c0.084,0.153,0.167,0.284,0.253,0.413c0,0,0,0,0,0
	c0.1,0.191,0.197,0.346,0.299,0.498l0.183,0.365l0.198,0.198l0.011,0.023c0.073,0.183,0.185,0.419,0.356,0.668v0.022l0.366,1.096
	c0.01,0.055,0.022,0.107,0.034,0.157v0.144l0.153,0.46c0.023,0.126,0.047,0.244,0.075,0.361c0.019,0.173,0.043,0.321,0.063,0.437
	l0.009,0.057v0.61l0.172,0.342l0.018,0.076c0.01,0.08,0.01,0.436,0.01,0.671v50.014l342.239,47.237
	c0.255,0.08,0.576,0.149,0.961,0.149h0.013l0.3,0.1h0.128c0.119,0.027,0.256,0.054,0.409,0.072c0.237,0.104,0.446,0.166,0.6,0.207
	l1.287,0.643c0.337,0.259,0.644,0.421,0.854,0.527c0.14,0.093,0.267,0.173,0.411,0.252c0.111,0.083,0.235,0.173,0.376,0.264
	c0.081,0.075,0.18,0.162,0.296,0.251l0.247,0.247c0.078,0.079,0.15,0.147,0.223,0.21c0.109,0.149,0.215,0.269,0.302,0.361
	c0.114,0.169,0.229,0.311,0.328,0.421l0.06,0.12l0.326,0.326c0.127,0.212,0.254,0.383,0.34,0.497
	c0.086,0.156,0.168,0.285,0.253,0.412l0.483,0.965l0.06,0.06c0.08,0.202,0.158,0.371,0.226,0.511
	c0.041,0.154,0.099,0.346,0.189,0.562c0.035,0.133,0.082,0.297,0.152,0.482c0.025,0.119,0.059,0.263,0.108,0.426
	c0.015,0.077,0.029,0.146,0.043,0.204c0.02,0.23,0.057,0.425,0.086,0.575v0.515l0.101,0.2v113.689c0,28.783-23.417,52.2-52.2,52.2
	h-268.1c-9.423,0-18.65-2.486-26.684-7.189l-4.516-2.644v41.833c0,17.204,13.996,31.2,31.2,31.2h255c28.397,0,51.5,23.103,51.5,51.5
	S429.467,483.569,401.069,483.569z M401.169,401.469c-16.817,0-30.5,13.683-30.5,30.5s13.683,30.5,30.5,30.5s30.5-13.683,30.5-30.5
	S417.986,401.469,401.169,401.469z M185.769,401.469c-16.818,0-30.5,13.683-30.5,30.5s13.682,30.5,30.5,30.5s30.5-13.683,30.5-30.5
	S202.587,401.469,185.769,401.469z M114.869,265.169c0,17.204,13.996,31.2,31.2,31.2h268.1c17.204,0,31.2-14.041,31.2-31.3V161.354
	l-330.5-45.526V265.169z"/>
</svg>
