<?xml version="1.0" encoding="utf-8"?>
<!-- Generator: Adobe Illustrator 17.0.0, SVG Export Plug-In . SVG Version: 6.00 Build 0)  -->
<!DOCTYPE svg PUBLIC "-//W3C//DTD SVG 1.1//EN" "http://www.w3.org/Graphics/SVG/1.1/DTD/svg11.dtd">
<svg version="1.1" id="Layer_1" xmlns="http://www.w3.org/2000/svg" xmlns:xlink="http://www.w3.org/1999/xlink" x="0px" y="0px"
	 width="67px" height="43px" viewBox="0 0 511.999 323.873" enable-background="new 0 0 511.999 323.873"
	 xml:space="preserve">
<g>
	<path fill="#FFFFFF" d="M476.158,137.301L462.9,84.266c3.625-0.77,6.344-3.986,6.344-7.839v-8.551
		c0-18.566-15.105-33.67-33.67-33.67h-60.392V16.568C375.182,7.432,367.75,0,358.614,0H50.772c-9.136,0-16.568,7.432-16.568,16.568
		v145.37c0,4.427,3.589,8.017,8.017,8.017c4.427,0,8.017-3.589,8.017-8.017V16.568c0-0.295,0.239-0.534,0.534-0.534h307.841
		c0.295,0,0.535,0.239,0.535,0.534V161.94c0,4.427,3.589,8.017,8.016,8.017s8.017-3.589,8.017-8.017v-9.088h94.569
		c0.008,0,0.014,0.002,0.022,0.002s0.014-0.001,0.021-0.001c11.637,0.008,21.518,7.646,24.912,18.171h-24.927
		c-4.428,0-8.018,3.589-8.018,8.017v17.102c0,13.851,11.269,25.119,25.119,25.119h9.086v35.273h-20.962
		c-6.886-19.883-25.787-34.205-47.982-34.205s-41.097,14.322-47.982,34.205h-3.86v-60.393c0-4.427-3.589-8.018-8.017-8.018
		c-4.426,0-8.017,3.59-8.017,8.018v60.391H192.817c-6.886-19.883-25.787-34.205-47.982-34.205s-41.097,14.322-47.982,34.205H50.772
		c-0.295,0-0.534-0.24-0.534-0.534v-17.637h34.739c4.427,0,8.017-3.589,8.017-8.017c0-4.429-3.589-8.017-8.017-8.017H8.017
		c-4.427,0-8.017,3.588-8.017,8.017c0,4.428,3.589,8.017,8.017,8.017h26.188v17.637c0,9.136,7.432,16.568,16.568,16.568h43.304
		c-0.002,0.178-0.014,0.355-0.014,0.534c0,27.996,22.777,50.772,50.772,50.772s50.772-22.776,50.772-50.772
		c0-0.18-0.012-0.356-0.014-0.534h180.67c-0.002,0.178-0.014,0.355-0.014,0.534c0,27.996,22.778,50.772,50.773,50.772
		c27.994,0,50.771-22.776,50.771-50.772c0-0.18-0.012-0.356-0.013-0.534h26.203c4.426,0,8.016-3.589,8.016-8.017v-85.511
		C512,157.927,496.423,140.386,476.158,137.301 M375.182,50.239h60.392c9.725,0,17.637,7.912,17.637,17.637v0.534h-78.029V50.239z
		 M375.182,136.819V84.443h71.235l13.094,52.376H375.182z M144.835,307.842c-19.155,0-34.739-15.583-34.739-34.739
		s15.584-34.739,34.739-34.739s34.739,15.583,34.739,34.739S163.99,307.842,144.835,307.842 M427.024,307.842
		c-19.156,0-34.74-15.583-34.74-34.739s15.584-34.739,34.74-34.739c19.154,0,34.738,15.583,34.738,34.739
		S446.178,307.842,427.024,307.842 M495.967,205.228h-9.086c-5.01,0-9.086-4.076-9.086-9.086v-9.086h18.171v18.172H495.967z"/>
	<path fill="#FFFFFF" d="M144.835,256.535c-9.136,0-16.568,7.433-16.568,16.568c0,9.136,7.432,16.569,16.568,16.569
		c9.136,0,16.568-7.433,16.568-16.569C161.403,263.968,153.971,256.535,144.835,256.535"/>
	<path fill="#FFFFFF" d="M427.023,256.535c-9.137,0-16.568,7.433-16.568,16.568c0,9.136,7.431,16.569,16.568,16.569
		c9.136,0,16.567-7.433,16.567-16.569C443.59,263.968,436.159,256.535,427.023,256.535"/>
	<path fill="#FFFFFF" d="M332.96,222.331H213.244c-4.427,0-8.017,3.59-8.017,8.018c0,4.427,3.589,8.016,8.017,8.016H332.96
		c4.427,0,8.017-3.589,8.017-8.016C340.977,225.921,337.388,222.331,332.96,222.331"/>
	<path fill="#FFFFFF" d="M127.733,188.125H25.119c-4.427,0-8.017,3.59-8.017,8.018c0,4.427,3.589,8.016,8.017,8.016h102.614
		c4.427,0,8.017-3.589,8.017-8.016C135.75,191.715,132.16,188.125,127.733,188.125"/>
	<path fill="#FFFFFF" d="M278.772,79.308c-3.131-3.13-8.207-3.13-11.338,0.001L196.143,150.6l-37.087-37.087
		c-3.132-3.131-8.207-3.131-11.338,0s-3.131,8.206,0,11.337l42.757,42.756c1.565,1.566,3.616,2.348,5.668,2.348
		c2.05,0,4.104-0.782,5.668-2.348l76.959-76.96C281.901,87.514,281.901,82.439,278.772,79.308"/>
</g>
</svg>
