<?xml version="1.0" encoding="utf-8"?>
<!-- Generator: Adobe Illustrator 17.0.0, SVG Export Plug-In . SVG Version: 6.00 Build 0)  -->
<!DOCTYPE svg PUBLIC "-//W3C//DTD SVG 1.1//EN" "http://www.w3.org/Graphics/SVG/1.1/DTD/svg11.dtd">
<svg version="1.1" id="Layer_1" xmlns="http://www.w3.org/2000/svg" xmlns:xlink="http://www.w3.org/1999/xlink" x="0px" y="0px"
	 width="56px" height="66px" viewBox="0 0 427.711 512.008" enable-background="new 0 0 427.711 512.008"
	 xml:space="preserve">
<g>
	<path fill="#3876E1" d="M427.685,223.277V74.767c0-4.037-2.6-7.617-6.441-8.863L219.865,0.46c-2.039-0.666-4.147-0.585-6.013,0.093
		c-1.883-0.672-3.985-0.753-6.024-0.093L6.455,65.904c-3.841,1.245-6.441,4.819-6.441,8.863l0.012,148.157
		c-0.081,2.166-5.74,217.591,209.008,288.609c0.944,0.318,1.94,0.475,2.931,0.475h3.784c0.99,0,1.986-0.157,2.93-0.475
		C433.421,440.515,427.761,225.084,427.685,223.277 M214.235,493.367h-0.765C13.655,426.388,18.347,231.885,18.649,223.277V81.533
		l194.932-63.348c0.093-0.029,0.18-0.064,0.272-0.093c0.081,0.029,0.174,0.064,0.261,0.093l194.937,63.353l0.012,142.098
		C409.138,225.652,414.416,426.231,214.235,493.367"/>
	<path fill="#3876E1" d="M369.517,101.251L218.395,50.397c-1.309-0.434-2.665-0.539-3.922-0.434c-1.263-0.097-2.601,0-3.922,0.434
		L59.446,101.25c-3.783,1.28-6.343,4.831-6.343,8.834l0.012,115.718c0.052,1.662,7.606,167.197,157.993,225.453
		c1.083,0.417,2.23,0.626,3.365,0.626c1.135,0,2.282-0.209,3.365-0.626c150.393-58.256,157.958-223.79,158.021-225.782V110.084
		C375.854,106.082,373.299,102.531,369.517,101.251 M214.473,432.557C78.95,377.65,71.79,226.677,71.738,225.478V116.78
		l142.735-48.037l142.752,48.037l0.006,108.362C357.168,226.671,349.995,377.65,214.473,432.557"/>
	<path fill="#3876E1" d="M321.143,187.183c-3.962-3.313-9.842-2.757-13.126,1.182l-107.84,129.163l-69.563-73.05
		c-3.574-3.742-9.453-3.858-13.172-0.33c-3.73,3.551-3.875,9.453-0.33,13.172l76.769,80.621c1.767,1.848,4.205,2.896,6.754,2.896
		c0.098,0,0.197,0,0.301-0.012c2.659-0.081,5.15-1.303,6.853-3.337l114.537-137.186C325.62,196.353,325.093,190.479,321.143,187.183
		"/>
</g>
</svg>
