<?xml version="1.0" encoding="utf-8"?>
<!-- Generator: Adobe Illustrator 17.0.0, SVG Export Plug-In . SVG Version: 6.00 Build 0)  -->
<!DOCTYPE svg PUBLIC "-//W3C//DTD SVG 1.1//EN" "http://www.w3.org/Graphics/SVG/1.1/DTD/svg11.dtd">
<svg version="1.1" id="Layer_1" xmlns="http://www.w3.org/2000/svg" xmlns:xlink="http://www.w3.org/1999/xlink" x="0px" y="0px"
	 width="660px" height="584px" viewBox="0 0 660 584" enable-background="new 0 0 660 584" xml:space="preserve">
<g>
	<path fill="#3876E1" d="M73.304,204.076c0.997,20.71,3.032,41.208,9.657,60.977c5.013,14.96,12.449,28.382,25.635,37.792
		c14.587,10.41,31.087,11.661,48.244,9.919c12.683-1.288,23.271-7.579,34.015-13.604c24.802-13.909,49.124-28.785,74.548-41.446
		c32.714-16.292,67.711-24.93,104.536-24.449c39.516,0.516,76.013,12.034,110.196,31.341c8.831,4.988,17.217,10.759,25.882,16.048
		c2.572,1.57,3.437,3.312,3.055,6.469c-6.553,54.177-29.384,100.304-69.09,137.65c-37.152,34.944-81.533,54.525-132.362,59.202
		c-7.777,0.716-15.649,0.395-23.432,1.071c-3.431,0.298-7.231,1.159-10.046,3.009c-28.482,18.721-59.131,24.928-92.437,16.777
		c-0.969-0.237-1.927-0.524-2.875-0.832c-0.46-0.15-0.887-0.404-1.488-0.686c2.26-14.107,6.867-27.304,15.042-39.518
		c-60.046-30.2-100.153-76.834-118.852-141.074C62.067,283.333,62.224,243.647,73.304,204.076z M227.352,455.307
		c14.911,4.786,29.063,7.546,43.478,8.638c47.878,3.625,91.989-7.771,131.548-34.973c46.322-31.852,74.048-76.052,84.674-131.148
		c0.704-3.651-0.226-5.902-3.557-7.652c-11.629-6.108-22.862-13.057-34.788-18.498c-34.59-15.782-70.82-21.437-108.638-16.003
		c-31.254,4.491-60.08,15.898-87.472,31.059c-19.653,10.878-38.923,22.457-58.247,33.92c-19.888,11.797-41.273,15.285-63.947,12.175
		c-13.256-1.818-25.233-6.862-36.645-15.325c0.302,1.922,0.331,3.027,0.655,4.038c18.249,56.98,54.454,98.342,108.35,124.189
		c1.391,0.667,4.282,0.148,5.439-0.93c15.305-14.257,32.837-24.917,52.078-32.897c2.028-0.841,4.146-1.466,6.669-2.348
		c0,6.133-0.226,11.468,0.077,16.773c0.211,3.703-1.044,5.51-4.528,7.039C250.125,438.798,238.656,445.797,227.352,455.307z
		 M202.424,487.175c11.12,2.423,34.15-1.51,39.973-6.365c-9.461-2.801-18.946-5.65-28.47-8.359
		c-0.889-0.253-2.564,0.034-2.967,0.658C208.041,477.615,205.356,482.274,202.424,487.175z"/>
	<path fill="#3876E1" d="M287.297,102.399c3.036,5.118,5.945,9.751,8.59,14.531c11.009,19.893,15.009,41.476,14.853,63.943
		c-0.011,1.598-2.16,3.928-3.855,4.652c-14.911,6.365-30.424,6.293-45.484,1.553c-17.417-5.482-34.283-12.691-51.561-18.651
		c-9.71-3.349-19.62-6.524-29.701-8.309c-19.736-3.494-35.344,5.573-47.745,19.592c-25.135,28.415-33.831,60.861-20.984,97.686
		c0.092,0.263-0.064,0.613-1.24,1.856c-3.915-4.975-8.412-9.603-11.629-14.995c-7.376-12.365-10.566-26.211-12.003-40.375
		c-2.612-25.744-0.373-50.966,10.613-74.739c8.66-18.742,22.231-33.98,37.059-47.968c42.01-39.63,92.108-60.268,149.808-61.277
		c17.2-0.301,33.872,4.361,49.743,12.459C321.736,72.584,311.258,93.561,287.297,102.399z M111.6,171.916
		c1.424-1.55,2.837-3.11,4.273-4.647c10.366-11.094,22.067-20.298,36.701-25.078c16.178-5.285,32.383-3.753,48.085,1.595
		c17.615,5.999,34.865,13.069,52.316,19.557c10.335,3.842,20.907,6.662,32.074,6.626c3.787-0.012,5.139-1.191,4.662-5.363
		c-2.15-18.802-8.928-35.702-19.855-51.055c-5.184-7.284-10.235-14.662-15.679-22.475c8.934-2.769,17.307-5.412,25.71-7.956
		c10.528-3.188,17.018-10.906,23.224-19.965c-2.266-0.54-3.86-0.92-5.454-1.299c-14.632-3.479-29.192-1.529-43.619,1.073
		c-56.146,10.129-100.709,38.517-133.26,85.469C115.951,155.366,112.597,163.09,111.6,171.916z"/>
	<path fill="#3876E1" d="M398.939,176.156c-22.338-0.314-40.089-18.618-39.643-40.877c0.445-22.211,18.709-39.546,41.325-39.223
		c21.818,0.311,39.509,18.822,39.101,40.912C439.316,159.009,421.146,176.469,398.939,176.156z M391.801,109.735
		c-10.025,0.09-18.065,8.277-17.917,18.244c0.144,9.697,8.234,17.744,17.927,17.831c9.815,0.088,18.153-8.193,18.225-18.101
		C410.108,117.911,401.723,109.646,391.801,109.735z"/>
	<path fill="#3876E1" d="M469.291,425.994c33.012-37.436,52.615-79.717,60.073-127.93
		C541.448,338.993,523.105,399.517,469.291,425.994z"/>
	<path fill="#3876E1" d="M389.212,212.739c41.761-13.207,97.801,4.975,123.378,46.508c-19.229-12.595-38.633-22.973-59.275-30.956
		C432.749,220.338,411.503,215.194,389.212,212.739z"/>
	<path fill="#3876E1" d="M388.108,413.286c-7.774,4.236-14.248,7.942-20.922,11.245c-1.259,0.623-3.581,0.121-4.955-0.663
		c-31.002-17.683-50.006-44.133-57.076-79.066c-3.769-18.622-2.421-37.042,2.938-55.247c1.006-3.418,2.725-5.329,6.222-6.12
		c6.413-1.45,12.756-3.209,20.365-5.156c-13.219,26.958-15.031,53.386-4.511,79.986
		C340.635,384.727,359.865,402.715,388.108,413.286z"/>
	<path fill="#3876E1" d="M383.877,292.811c0.032-9.726,7.814-17.515,17.464-17.478c9.529,0.036,17.427,8.026,17.423,17.626
		c-0.005,9.604-7.972,17.476-17.574,17.365C391.301,310.21,383.844,302.667,383.877,292.811z"/>
</g>
</svg>
