<?xml version="1.0" encoding="utf-8"?>
<!-- Generator: Adobe Illustrator 17.0.0, SVG Export Plug-In . SVG Version: 6.00 Build 0)  -->
<!DOCTYPE svg PUBLIC "-//W3C//DTD SVG 1.1//EN" "http://www.w3.org/Graphics/SVG/1.1/DTD/svg11.dtd">
<svg version="1.1" id="Layer_1" xmlns="http://www.w3.org/2000/svg" xmlns:xlink="http://www.w3.org/1999/xlink" x="0px" y="0px"
	 width="71px" height="58px" viewBox="0 0 512.16 418.133" enable-background="new 0 0 512.16 418.133"
	 xml:space="preserve">
<g>
	<path fill="#3876E1" d="M273.067,290.133H409.6c5.12,0,8.533-3.413,8.533-8.533v-76.8c0-5.12-3.413-8.533-8.533-8.533H273.067
		c-5.12,0-8.533,3.413-8.533,8.533v76.8C264.533,286.719,267.947,290.133,273.067,290.133 M281.6,213.333h119.468v59.733H281.6
		V213.333z"/>
	<path fill="#3876E1" d="M504.321,90.453c-5.974-7.68-13.654-11.947-23.04-12.8L460.8,75.171V51.199V34.133
		C460.8,15.36,445.441,0,426.667,0H34.133C15.36-0.001,0,15.359,0,34.133V51.2v68.267V307.2c0,15.413,10.357,28.519,24.454,32.718
		c-0.431,17.263,12.63,32.248,30.16,33.843l394.24,44.372h3.413c17.067,0,32.428-12.8,34.134-29.013L512,115.2
		C512.853,106.666,510.293,97.279,504.321,90.453 M17.067,59.733h426.668V81.92v29.013H17.067V59.733z M34.133,17.066h392.533
		c9.387,0,17.068,7.68,17.068,17.067v8.533H17.067v-8.533C17.067,24.746,24.747,17.066,34.133,17.066 M17.067,307.199v-179.2
		h426.668v179.2c0,9.387-7.681,17.067-17.068,17.067H34.987h-0.853C24.747,324.266,17.067,316.586,17.067,307.199 M494.933,111.786
		l-25.6,273.92c-0.852,9.388-9.386,16.213-18.773,15.36L57.173,356.693c-8.532-0.853-14.507-7.679-15.36-15.36h384.853
		c18.774,0,34.133-15.36,34.133-34.133V119.466v-28.16l19.627,1.707c4.268,0,8.533,2.56,11.093,5.973
		C494.08,102.399,495.787,107.519,494.933,111.786"/>
</g>
</svg>
