<svg xmlns="http://www.w3.org/2000/svg" width="19" height="19"><defs><style>.cls-1{fill:#b3b6b9;fill-rule:evenodd}</style></defs><path id="Forma_1_copy" data-name="Forma 1 copy" class="cls-1" d="M1838.76 6036h-8.52a5.245 5.245 0 0 0-5.24 5.24v8.51a5.247 5.247 0 0 0 5.24 5.25h8.52a5.247 5.247 0 0 0 5.24-5.25v-8.51a5.245 5.245 0 0 0-5.24-5.24zm3.55 13.75a3.559 3.559 0 0 1-3.55 3.56h-8.52a3.559 3.559 0 0 1-3.55-3.56v-8.51a3.559 3.559 0 0 1 3.55-3.56h8.52a3.559 3.559 0 0 1 3.55 3.56v8.51zm-7.81-9.15a4.9 4.9 0 1 0 4.9 4.9 4.908 4.908 0 0 0-4.9-4.9zm0 8.11a3.21 3.21 0 1 1 3.21-3.21 3.214 3.214 0 0 1-3.21 3.21zm5.1-9.54a1.243 1.243 0 0 0-.87.36 1.22 1.22 0 0 0 0 1.75 1.243 1.243 0 0 0 .87.36 1.266 1.266 0 0 0 .88-.36 1.235 1.235 0 0 0-.88-2.11z" transform="translate(-1825 -6036)"/></svg>