<?xml version="1.0" encoding="utf-8"?>
<!-- Generator: Adobe Illustrator 17.0.0, SVG Export Plug-In . SVG Version: 6.00 Build 0)  -->
<!DOCTYPE svg PUBLIC "-//W3C//DTD SVG 1.1//EN" "http://www.w3.org/Graphics/SVG/1.1/DTD/svg11.dtd">
<svg version="1.1" id="Layer_1" xmlns="http://www.w3.org/2000/svg" xmlns:xlink="http://www.w3.org/1999/xlink" x="0px" y="0px"
	 width="95px" height="83px" viewBox="0 0 448.741 390.99" enable-background="new 0 0 448.741 390.99"
	 xml:space="preserve">
<g>
	<path fill="#3876E1" d="M287.46,5.328c0-2.56-2.048-4.608-4.608-5.12c-30.72-3.072-48.128,28.672-54.784,45.568
		c-32.768-43.008-87.04-45.568-89.6-45.568h-0.512c-65.024,0-81.408,54.784-81.408,55.296c-0.512,1.024,0,2.048,0,3.072
		c17.92,50.688,60.416,55.808,76.288,55.808c3.072,0,5.12,0,6.144-0.512c4.608,0,57.344-3.072,89.088-45.568
		c6.656,16.896,24.064,48.64,54.784,45.568c2.56,0,4.608-2.56,4.608-5.12c0-1.536,0.512-34.816-15.872-51.712
		C287.972,40.144,287.46,6.864,287.46,5.328 M137.956,104.144c-2.048,0.512-51.2,6.144-70.656-46.592
		c2.56-8.704,18.944-46.592,70.656-46.592c1.024,0,56.32,2.56,85.504,46.592C194.276,101.584,138.98,104.144,137.956,104.144
		 M276.708,104.144c-26.112-1.536-39.424-38.912-41.984-46.592c2.56-7.68,16.384-45.056,41.984-46.592
		c-0.512,10.24-3.072,33.28-16.384,42.496c-1.536,1.024-2.048,2.56-2.048,4.096c0,1.536,1.024,3.072,2.048,4.096
		C273.636,70.864,276.196,93.904,276.708,104.144"/>
	<path fill="#3876E1" d="M96.996,40.655c3.11,0,5.632,2.521,5.632,5.632s-2.522,5.632-5.632,5.632c-3.11,0-5.632-2.521-5.632-5.632
		S93.886,40.655,96.996,40.655"/>
	<path fill="#3876E1" d="M448.74,210.127c0-2.559-2.048-4.608-4.608-5.12c-30.72-3.072-48.128,28.672-54.784,45.569
		c-32.768-43.008-87.04-45.569-89.6-45.569h-0.512c-65.024,0-81.408,54.784-81.408,55.296c-0.512,1.024,0,2.048,0,3.072
		c17.92,50.688,60.416,55.296,76.288,55.296c3.072,0,5.12,0,6.144-0.511c4.608,0,57.344-3.073,89.088-45.569
		c6.656,16.897,24.064,48.64,54.784,45.569c2.56,0,4.608-2.561,4.608-5.121c0-1.536,0.512-34.816-15.872-51.712
		C449.251,244.944,448.74,211.663,448.74,210.127 M299.236,308.431c-2.048,0.513-51.2,6.145-70.656-46.592
		c3.072-8.192,18.944-46.592,71.168-46.592h0.512c0.511,0,55.808,2.56,84.992,46.592
		C355.556,305.871,300.26,308.431,299.236,308.431 M438.5,308.431c-26.112-1.536-39.424-38.912-41.984-46.592
		c2.56-7.679,15.872-45.055,41.984-46.592c-0.512,10.241-3.072,33.281-16.384,42.496c-1.536,1.024-2.048,2.56-2.048,4.096
		c0,1.536,1.024,3.072,2.048,4.096C434.916,275.152,437.988,298.191,438.5,308.431"/>
	<path fill="#3876E1" d="M258.788,244.944c3.11,0,5.632,2.521,5.632,5.632c0,3.11-2.522,5.632-5.632,5.632
		c-3.11,0-5.632-2.522-5.632-5.632C253.156,247.465,255.678,244.944,258.788,244.944"/>
	<path fill="#3876E1" d="M352.484,132.304c0-2.56-2.049-4.608-4.608-5.12c-14.848-1.536-23.552,11.264-28.16,20.48
		c-17.409-19.456-43.008-20.48-44.544-20.48c-27.648,0-40.449,19.456-43.008,29.696c-0.512,1.024,0,2.048,0,3.072
		c8.192,23.552,27.648,29.696,39.935,29.696h4.097c3.071,0,27.136-2.048,43.52-20.48c4.608,9.216,13.312,22.016,28.16,20.48
		c2.559,0,4.608-2.56,4.608-5.12c0-2.048,0-16.896-7.168-26.112C352.484,149.2,352.484,134.352,352.484,132.304 M275.172,178.896
		h-0.512c-1.024,0-23.04,3.072-32.256-20.992c2.048-5.12,10.239-20.48,32.768-20.48c0.511,0,25.6,1.024,39.424,20.992
		C300.772,177.872,275.172,178.896,275.172,178.896 M335.076,162c4.096,3.072,6.144,10.24,6.656,15.872
		c-8.704-3.072-13.824-15.872-15.36-19.968c1.536-4.096,6.656-16.896,15.36-19.968c-0.512,5.632-2.56,12.8-6.656,15.872
		c-1.536,1.024-2.048,2.56-2.048,4.096S334.051,160.976,335.076,162"/>
	<path fill="#3876E1" d="M254.692,149.712c1.696,0,3.071,1.375,3.071,3.072s-1.375,3.072-3.071,3.072
		c-1.697,0-3.072-1.375-3.072-3.072S252.995,149.712,254.692,149.712"/>
	<path fill="#3876E1" d="M270.564,359.631c6.655-9.216,6.655-24.064,6.655-26.112c0-2.56-2.048-4.607-4.607-5.12
		c-14.849-1.535-23.553,11.265-28.16,20.48c-17.409-19.456-43.009-20.48-44.033-20.48c-27.648,0-40.447,19.456-43.007,29.696
		c-0.513,1.025,0,2.048,0,3.072c8.191,23.552,27.648,29.697,39.936,29.697h4.095c3.073,0,27.137-2.049,43.52-20.481
		c4.609,9.216,13.313,22.016,28.161,20.481c2.559,0,4.608-2.561,4.608-5.12C277.732,383.696,277.732,368.847,270.564,359.631
		 M199.908,380.112h-0.513c-1.023,0-23.04,3.071-32.255-20.992c2.047-5.121,10.239-20.481,32.768-20.481
		c0.511,0,25.599,1.025,39.424,20.481C225.507,379.087,200.419,380.112,199.908,380.112 M259.812,363.727
		c4.096,3.072,6.144,10.24,6.655,15.872c-8.704-3.071-13.824-15.872-15.359-19.968c1.535-4.095,6.655-16.895,15.359-19.967
		c-0.511,5.631-2.559,12.799-6.655,15.872c-1.536,1.023-2.049,2.559-2.049,4.095S258.276,362.704,259.812,363.727"/>
	<path fill="#3876E1" d="M179.939,350.927c1.697,0,3.072,1.376,3.072,3.072c0,1.697-1.375,3.073-3.072,3.073
		c-1.697,0-3.072-1.376-3.072-3.073C176.867,352.303,178.242,350.927,179.939,350.927"/>
	<path fill="#3876E1" d="M142.564,165.583c9.728-11.776,9.728-32.256,9.728-33.28c0-2.56-2.048-4.608-4.608-5.12
		c-19.456-2.048-30.72,15.872-35.84,27.648c-22.016-25.6-55.808-27.136-57.344-27.136c-43.008,0-53.76,36.352-54.272,36.864
		c-0.512,1.024,0,2.048,0,3.072c11.776,33.28,39.936,36.864,50.688,36.864c2.048,0,3.072-0.512,4.096-0.512
		c3.072,0,35.84-2.048,56.832-27.648c5.12,11.776,16.384,29.697,35.84,27.648c2.56,0,4.608-2.56,4.608-5.119
		C152.292,197.839,152.804,177.359,142.564,165.583 M53.476,194.255c-1.024,0-30.72,3.072-43.008-28.672
		c2.56-5.632,12.8-27.648,43.52-27.648c0.512,0,34.304,1.536,52.224,28.16C87.78,192.719,53.988,194.255,53.476,194.255
		 M131.812,169.679c6.656,4.608,9.216,15.872,9.728,23.552c-13.824-2.56-21.504-22.528-23.04-27.648
		c1.536-5.12,9.216-25.088,23.04-27.648c-0.512,7.68-3.072,18.944-9.728,23.552c-1.536,1.024-2.048,2.56-2.048,4.096
		S130.788,168.656,131.812,169.679"/>
	<path fill="#3876E1" d="M27.875,154.832c1.979,0,3.584,1.604,3.584,3.584c0,1.979-1.605,3.584-3.584,3.584
		s-3.584-1.605-3.584-3.584C24.291,156.436,25.896,154.832,27.875,154.832"/>
	<path fill="#3876E1" d="M204.004,214.223c0-2.56-2.048-4.607-4.608-5.12c-19.456-2.048-30.72,15.872-35.84,27.648
		c-21.504-26.112-55.296-27.648-56.832-27.648h-0.512c-43.008,0-53.76,36.352-54.272,36.864c-0.512,1.025,0,2.048,0,3.072
		c11.776,33.281,39.936,36.865,50.688,36.865h4.096c3.072,0,35.84-2.049,56.832-27.649c5.12,11.777,16.384,29.184,35.84,27.649
		c2.56,0,4.608-2.561,4.608-5.12c0-1.025,0.512-21.504-9.728-33.281C204.516,235.727,204.004,215.247,204.004,214.223
		 M106.212,275.663c-1.024,0-30.72,3.584-43.52-28.16c2.048-6.144,12.8-28.16,43.52-28.16c0.512,0,34.304,1.536,52.224,28.16
		C140.516,274.127,106.724,275.663,106.212,275.663 M184.036,251.599c6.656,4.608,9.216,15.872,9.728,23.553
		c-13.824-2.561-21.504-22.529-23.04-27.649c2.048-5.632,9.216-25.088,23.04-27.648c-0.512,7.681-3.072,18.944-9.728,23.553
		c-1.536,1.023-2.048,2.559-2.048,4.095S182.5,250.576,184.036,251.599"/>
	<path fill="#3876E1" d="M80.1,236.752c1.979,0,3.584,1.604,3.584,3.584c0,1.979-1.605,3.584-3.584,3.584
		c-1.979,0-3.584-1.605-3.584-3.584C76.516,238.356,78.121,236.752,80.1,236.752"/>
</g>
</svg>
