<?xml version="1.0" encoding="utf-8"?>
<!-- Generator: Adobe Illustrator 17.0.0, SVG Export Plug-In . SVG Version: 6.00 Build 0)  -->
<!DOCTYPE svg PUBLIC "-//W3C//DTD SVG 1.1//EN" "http://www.w3.org/Graphics/SVG/1.1/DTD/svg11.dtd">
<svg version="1.1" id="Capa_1" xmlns="http://www.w3.org/2000/svg" xmlns:xlink="http://www.w3.org/1999/xlink" x="0px" y="0px"
	 width="90px" height="85px" viewBox="0 0 351.361 351.361" enable-background="new 0 0 351.361 351.361"
	 xml:space="preserve">
<path fill="#3876E1" d="M345.359,340.182c-22.652-0.001-42.724-6.934-58.045-20.05c-11.035-9.447-19.027-21.484-23.753-35.777
	l-0.916-2.772l-2.254,1.856c-42.164,34.744-87.633,53.108-131.494,53.108c-45.37,0-84.848-19.671-114.168-56.885
	c-0.759-0.964-1.034-2.2-0.752-3.394c0.281-1.192,1.079-2.177,2.188-2.7l10.428-4.92l-21.424-4.554
	C3.333,263.704,2,262.059,2,260.182c0-0.746,0.207-1.476,0.598-2.108c29.619-47.887,74.472-74.259,126.298-74.259
	c43.863,0,89.336,18.367,131.504,53.117l2.254,1.857l0.917-2.774c4.728-14.312,12.715-26.353,23.741-35.788
	c15.323-13.114,35.396-20.046,58.049-20.046c1.067,0,2.072,0.416,2.828,1.172c0.745,0.744,1.172,1.775,1.172,2.828
	c-0.003,32.298-14.343,59.37-39.343,74.277l-2.881,1.718l2.881,1.718c25,14.909,39.339,41.986,39.341,74.288
	c0,1.053-0.428,2.084-1.173,2.828C347.432,339.766,346.428,340.182,345.359,340.182L345.359,340.182z M339.032,188.382
	c-34.931,2.247-60.849,22.839-69.33,55.084l-0.311,1.181l0.908,0.815c4.319,3.882,8.529,7.869,12.514,11.854
	c0.671,0.659,1.087,1.521,1.186,2.438c0.131,1.229-0.3,2.427-1.181,3.286c-3.999,3.997-8.197,7.974-12.494,11.837l-0.907,0.815
	l0.31,1.181c8.479,32.258,34.385,52.858,69.301,55.106l2.272,0.146l-0.147-2.272c-2.018-30.988-18.428-55.037-45.024-65.979
	c-1.505-0.619-2.478-2.071-2.478-3.699s0.973-3.08,2.479-3.699c26.597-10.94,43.008-34.984,45.027-65.969l0.147-2.271
	L339.032,188.382z M128.898,191.814c-46.018,0-86.77,22.439-114.748,63.185l-1.693,2.466l27.409,5.825
	c1.68,0.358,2.942,1.745,3.141,3.452c0.198,1.706-0.713,3.346-2.267,4.079l-16.565,7.815l1.726,1.993
	c27.148,31.348,62.765,47.917,102.998,47.916c48.01,0,99.131-23.768,143.948-66.926l1.496-1.44l-1.496-1.44
	C228.029,215.581,176.907,191.814,128.898,191.814z"/>
<path fill="#3876E1" d="M68.138,261.992c-8.879,0-16.102-7.223-16.102-16.102s7.223-16.102,16.102-16.102
	c8.877,0,16.101,7.224,16.102,16.102C84.24,254.77,77.017,261.992,68.138,261.992z M68.138,237.789
	c-4.467,0-8.102,3.635-8.102,8.102s3.635,8.102,8.102,8.102c4.465,0,8.1-3.634,8.102-8.101
	C76.24,241.424,72.605,237.789,68.138,237.789z"/>
<path fill="#3876E1" d="M150.022,315.271c-2.206,0-4-1.794-4-4s1.794-4,4-4c22.676,0,41.125-18.448,41.125-41.125
	c0-2.206,1.794-4,4-4s4,1.794,4,4C199.146,293.234,177.109,315.271,150.022,315.271z"/>
<path fill="#3876E1" d="M6.005,171.18c-1.068,0-2.072-0.416-2.828-1.171c-0.745-0.745-1.172-1.776-1.172-2.829
	c0-32.3,14.338-59.377,39.337-74.286l2.88-1.718l-2.88-1.718C16.342,74.552,2.003,47.479,2,15.181c0-1.068,0.416-2.073,1.172-2.829
	c0.755-0.754,1.76-1.171,2.828-1.171c22.653,0,42.726,6.931,58.05,20.044c11.025,9.435,19.013,21.476,23.741,35.789l0.917,2.774
	l2.254-1.858c42.167-34.749,87.641-53.116,131.504-53.116c51.826,0,96.68,26.373,126.298,74.259
	c0.392,0.633,0.599,1.362,0.599,2.107c0,1.877-1.333,3.522-3.169,3.913l-21.423,4.553l10.429,4.921
	c1.108,0.523,1.905,1.508,2.186,2.701c0.282,1.193,0.008,2.43-0.751,3.394c-29.319,37.214-68.799,56.884-114.168,56.884
	c-43.86,0-89.33-18.364-131.493-53.107l-2.254-1.857l-0.917,2.773c-4.727,14.293-12.718,26.331-23.753,35.776
	C48.728,164.246,28.656,171.179,6.005,171.18L6.005,171.18z M10.205,21.508c2.019,30.985,18.431,55.029,45.027,65.969
	c1.506,0.619,2.479,2.071,2.479,3.699c0,1.628-0.973,3.081-2.478,3.7c-26.597,10.941-43.008,34.989-45.024,65.978l-0.148,2.272
	l2.272-0.146c34.917-2.248,60.825-22.848,69.302-55.107l0.311-1.181l-0.908-0.815c-4.28-3.845-8.478-7.822-12.477-11.819
	c-0.897-0.877-1.328-2.076-1.197-3.303c0.098-0.918,0.515-1.78,1.172-2.427c4.01-4.008,8.221-7.996,12.525-11.864l0.908-0.816
	l-0.311-1.181c-8.482-32.245-34.399-52.837-69.33-55.084l-2.272-0.146L10.205,21.508z M222.465,22.815
	c-48.011,0-99.132,23.768-143.947,66.924l-1.496,1.44l1.496,1.44c44.816,43.158,95.938,66.926,143.947,66.926
	c40.232,0,75.849-16.569,102.998-47.917l1.727-1.994l-16.567-7.815c-1.554-0.733-2.464-2.373-2.266-4.079
	c0.199-1.707,1.462-3.094,3.143-3.452l27.408-5.825l-1.694-2.467C309.233,45.254,268.482,22.815,222.465,22.815z"/>
<path fill="#3876E1" d="M283.224,92.992c-8.879,0-16.102-7.223-16.102-16.101c0-8.879,7.223-16.102,16.102-16.102
	s16.103,7.223,16.103,16.102C299.326,85.769,292.103,92.992,283.224,92.992z M283.224,68.789c-4.467,0-8.102,3.635-8.102,8.102
	c0,4.467,3.635,8.101,8.102,8.101c4.468,0,8.103-3.634,8.103-8.101C291.326,72.424,287.691,68.789,283.224,68.789z"/>
<path fill="#3876E1" d="M201.339,146.271c-27.087,0-49.124-22.038-49.124-49.125c0-2.206,1.794-4,4-4s4,1.794,4,4
	c0,22.676,18.448,41.125,41.124,41.125c2.206,0,4,1.794,4,4S203.545,146.271,201.339,146.271z"/>
<path fill="#3876E1" d="M65,100.223"/>
<path fill="#3876E1" d="M65,100.223"/>
</svg>
