<?xml version="1.0" encoding="utf-8"?>
<!-- Generator: Adobe Illustrator 17.0.0, SVG Export Plug-In . SVG Version: 6.00 Build 0)  -->
<!DOCTYPE svg PUBLIC "-//W3C//DTD SVG 1.1//EN" "http://www.w3.org/Graphics/SVG/1.1/DTD/svg11.dtd">
<svg version="1.1" id="Layer_1" xmlns="http://www.w3.org/2000/svg" xmlns:xlink="http://www.w3.org/1999/xlink" x="0px" y="0px"
	 width="94px" height="94px" viewBox="0 0 512 512" enable-background="new 0 0 512 512" xml:space="preserve">
<path fill="#3876E1" d="M410.744,495.373c-0.686-0.753-16.764-18.653-15.811-39.783l0.178-3.946l-3.286,2.193
	c-6.143,4.099-12.618,7.895-19.246,11.279c-26.845,13.714-56.325,20.963-85.253,20.963c-2.192,0-4.388-0.041-6.524-0.122
	c-46.135-1.733-112.309-22.791-165.562-113.264l-0.918-1.561l-1.644,0.76c-6.871,3.173-13.59,4.782-19.972,4.782
	c-1.284,0-2.569-0.065-3.819-0.193c-20.722-2.129-35.108-21.617-35.711-22.445l-3.069-4.229l3.866-3.518
	c0.669-0.609,16.595-14.91,35.709-14.91c1.284,0,2.569,0.065,3.819,0.193c3.15,0.323,6.367,1.086,9.56,2.267l3.176,1.174
	l-0.504-3.348c-0.507-3.365-0.6-6.669-0.276-9.821c2.129-20.719,21.618-35.109,22.447-35.712l4.229-3.068l3.517,3.866
	c0.687,0.757,16.839,18.836,14.715,39.529c-0.855,8.323-4.582,16.604-11.078,24.612l-0.915,1.128l0.79,1.219
	c18.498,28.559,45.741,44.937,74.743,44.936c14.892-0.001,29.316-4.241,42.872-12.604c6.385-3.939,11.617-8.316,15.994-13.38
	l4.063-4.7l-6.042,1.447c-3.881,0.93-8.057,1.401-12.411,1.401c-12.079,0-21.933-3.534-22.346-3.686l-4.914-1.785l1.233-5.078
	c0.257-1.058,6.516-26.027,26.035-36.489c6.392-3.428,13.946-5.165,22.452-5.165c6.865,0,13.042,1.161,17.015,2.135l1.479,0.362
	l0.743-1.327c0.991-1.771,1.783-3.13,2.566-4.409c19.892-32.48,44.933-51.451,74.429-56.386c4.928-0.825,9.966-1.243,14.977-1.243
	c18.549,0,32.372,5.735,36.167,7.493c7.565,3.503,21.209,19.044,27.857,42.627c6.535,23.184,8.007,60.305-22.096,105.491
	c-1.035,1.555-2.219,3.217-3.726,5.232l-0.883,1.181l0.866,1.192c5.229,7.195,13.755,21.643,12.12,37.562
	c-2.262,22.02-22.981,37.305-23.863,37.944l-4.229,3.07L410.744,495.373z M419.888,430.49c-1.19,1.244-2.383,2.45-3.544,3.585
	l-0.076,0.074l-0.067,0.081c-5.609,6.777-8.804,13.618-9.492,20.332c-1.044,10.15,3.697,19.983,7.857,26.445l1.354,2.104
	l1.754-1.784c5.387-5.481,12.026-14.146,13.068-24.297c1.035-10.061-3.629-19.818-7.724-26.233l-1.37-2.146L419.888,430.49z
	 M128.122,362.026c-0.299,0.262-1.134,0.977-2.421,1.968l-1.399,1.077l0.895,1.521c50.605,86.069,112.79,106.073,156.045,107.698
	c1.983,0.073,3.997,0.109,5.986,0.109c52.151,0,96.513-24.997,120.639-48.392l0.067-0.065l0.062-0.072
	c1.938-2.273,4.034-4.451,6.229-6.474l0.069-0.064l0.063-0.07c3.25-3.622,6.221-7.366,8.829-11.128l1.125-1.622l-1.607-1.146
	c-8.857-6.312-14.49-15.239-20.454-24.691c-6.534-10.358-13.29-21.067-25.218-29.875c-10.771-7.953-22.265-11.521-33.38-14.973
	c-10.883-3.38-21.163-6.572-28.926-13.547l-1.817-1.634l-1.242,2.104c-4.861,8.24-8.378,16.586-11.48,23.95
	c-7.274,17.266-14.794,35.113-37.281,48.984c-15.676,9.67-32.288,14.572-49.375,14.572c-31.705,0-61.751-17.441-82.435-47.854
	l-1.271-1.868L128.122,362.026z M391.98,269.119c-18.897,0-46.612,6.962-71.331,40.132l-0.986,1.323l1.111,1.219
	c5.983,6.566,15.416,9.495,26.338,12.886c11.48,3.564,24.492,7.604,36.852,16.73c13.698,10.114,21.381,22.294,28.159,33.04
	c5.33,8.451,9.935,15.75,16.497,20.768l1.837,1.404l1.125-2.021c20.244-36.355,18.381-65.672,13.253-83.864
	c-6.221-22.068-18.582-33.838-21.525-35.201C420.06,274.029,408.195,269.119,391.98,269.119z M89.681,343.053
	c-8.292,0-16.138,3.835-21.26,7.052l-2.168,1.361l1.845,1.773c4.979,4.786,12.833,10.688,21.981,11.628
	c0.854,0.088,1.736,0.133,2.623,0.134c8.263,0,16.118-3.839,21.253-7.059l2.17-1.36l-1.846-1.775
	c-4.975-4.783-12.825-10.682-21.973-11.621C91.45,343.098,90.567,343.053,89.681,343.053z M280.84,329.988
	c-6.562,0-12.261,1.271-16.939,3.78c-8.945,4.794-14.449,14.24-17.491,21.321l-0.99,2.303l2.465,0.453
	c3.605,0.663,7.136,0.999,10.492,0.999c6.564,0,12.263-1.271,16.94-3.78c8.993-4.82,14.485-14.255,17.509-21.32l0.984-2.301
	l-2.461-0.453C287.742,330.325,284.206,329.988,280.84,329.988z M128.696,301.058c-4.786,4.978-10.688,12.832-11.629,21.981
	c-0.936,9.103,3.25,18.006,6.926,23.872l1.361,2.172l1.776-1.848c4.782-4.976,10.68-12.825,11.62-21.971
	c0.94-9.146-3.243-18.037-6.918-23.886l-1.361-2.166L128.696,301.058z"/>
<path fill="#3876E1" d="M119.95,255.254c-18.536,0.001-32.372-5.735-36.17-7.493c-7.563-3.502-21.206-19.041-27.853-42.624
	c-6.535-23.184-8.007-60.306,22.094-105.493c1.042-1.565,2.227-3.228,3.726-5.231l0.883-1.181l-0.867-1.193
	c-5.228-7.194-13.755-21.641-12.119-37.562c2.263-22.032,22.981-37.305,23.862-37.944l4.229-3.07l3.518,3.867
	c0.686,0.752,16.764,18.651,15.811,39.782l-0.178,3.947l3.286-2.193c6.144-4.1,12.62-7.895,19.246-11.28
	c26.847-13.714,56.319-20.963,85.23-20.963c2.178,0,4.38,0.042,6.546,0.124c46.137,1.733,112.311,22.79,165.563,113.264l0.918,1.56
	l1.645-0.759c6.871-3.174,13.591-4.783,19.972-4.783c1.288,0,2.573,0.065,3.819,0.193c20.715,2.129,35.112,21.618,35.715,22.447
	l3.066,4.229l-3.866,3.518c-0.669,0.609-16.605,14.909-35.709,14.909c-1.287,0-2.572-0.065-3.82-0.193
	c-3.155-0.324-6.371-1.087-9.56-2.267l-3.177-1.176l0.505,3.349c0.507,3.363,0.6,6.668,0.276,9.821
	c-2.128,20.71-21.617,35.109-22.446,35.712l-4.229,3.069l-3.518-3.867c-0.688-0.757-16.845-18.808-14.716-39.527
	c0.855-8.326,4.583-16.607,11.078-24.614l0.916-1.128l-0.79-1.219c-18.498-28.557-45.741-44.936-74.744-44.936
	c-14.891,0-29.315,4.24-42.874,12.604c-6.382,3.938-11.614,8.314-15.994,13.38l-4.065,4.701l6.044-1.448
	c3.882-0.93,8.059-1.401,12.417-1.401c12.084,0,21.93,3.535,22.343,3.686l4.914,1.785l-1.233,5.078
	c-0.257,1.058-6.517,26.028-26.034,36.489c-6.394,3.428-13.947,5.166-22.451,5.166c-6.875-0.001-13.049-1.162-17.018-2.136
	l-1.478-0.363l-0.744,1.328c-0.966,1.726-1.782,3.126-2.568,4.409c-19.891,32.48-44.931,51.451-74.427,56.385
	C130.002,254.836,124.964,255.254,119.95,255.254L119.95,255.254z M80.417,118.101c-20.244,36.358-18.38,65.676-13.251,83.868
	c6.221,22.069,18.581,33.836,21.523,35.2c3.25,1.505,15.114,6.415,31.33,6.415c18.898,0,46.613-6.962,71.332-40.131l0.986-1.323
	l-1.111-1.22c-5.985-6.568-15.417-9.496-26.338-12.887c-11.48-3.564-24.492-7.603-36.852-16.731
	c-13.696-10.114-21.379-22.292-28.158-33.037c-5.333-8.455-9.937-15.755-16.499-20.77l-1.837-1.404L80.417,118.101z
	 M384.878,165.455c-4.786,4.978-10.689,12.833-11.628,21.982c-0.936,9.104,3.25,18.007,6.926,23.873l1.36,2.171l1.775-1.847
	c4.782-4.974,10.68-12.822,11.62-21.971c0.939-9.148-3.244-18.039-6.919-23.887l-1.361-2.167L384.878,165.455z M224.764,38.303
	c-52.149,0-96.51,25.001-120.637,48.399l-0.067,0.065l-0.061,0.071c-1.94,2.273-4.033,4.448-6.22,6.464l-0.07,0.064l-0.063,0.071
	c-3.247,3.619-6.218,7.363-8.831,11.13l-1.126,1.623l1.608,1.146c8.856,6.311,14.489,15.239,20.452,24.691
	c6.542,10.367,13.296,21.071,25.218,29.875c10.769,7.952,22.261,11.52,33.375,14.971c10.885,3.378,21.162,6.567,28.93,13.548
	l1.818,1.633l1.242-2.105c4.866-8.249,8.381-16.592,11.483-23.953c7.273-17.262,14.793-35.109,37.28-48.981
	c15.676-9.67,32.289-14.573,49.375-14.573c31.706,0,61.751,17.442,82.433,47.855l1.268,1.863l1.702-1.48
	c0.39-0.339,1.224-1.046,2.426-1.971l1.399-1.077l-0.896-1.522C336.197,60.041,274.013,40.038,230.757,38.414
	C228.772,38.34,226.756,38.303,224.764,38.303z M253.624,153.857c-6.562,0-12.261,1.272-16.939,3.781
	c-8.947,4.795-14.451,14.242-17.492,21.321l-0.99,2.305l2.467,0.452c3.606,0.661,7.136,0.997,10.49,0.998
	c6.56,0,12.259-1.272,16.939-3.781c8.947-4.796,14.45-14.242,17.492-21.321l0.989-2.305l-2.467-0.452
	C260.503,154.193,256.974,153.857,253.624,153.857z M419.293,147.703c-8.292,0-16.138,3.834-21.26,7.051l-2.168,1.361l1.846,1.774
	c4.978,4.786,12.833,10.688,21.982,11.628c0.854,0.088,1.738,0.132,2.625,0.132c8.294,0,16.139-3.834,21.259-7.051l2.168-1.361
	l-1.846-1.774c-4.979-4.786-12.835-10.688-21.981-11.629C421.063,147.747,420.179,147.703,419.293,147.703z M94.327,31.374
	c-5.386,5.479-12.025,14.142-13.069,24.297c-1.034,10.063,3.63,19.821,7.725,26.234l1.371,2.148l1.76-1.842
	c1.188-1.243,2.378-2.447,3.54-3.581l0.076-0.074l0.067-0.082c5.611-6.778,8.807-13.619,9.497-20.334
	c1.042-10.149-3.698-19.984-7.858-26.446l-1.354-2.104L94.327,31.374z"/>
<path fill="#3876E1" d="M422.045,51.551c-3.219,0-5.837-2.618-5.837-5.836s2.618-5.836,5.837-5.836h0.22
	c3.218,0,5.836,2.618,5.836,5.836s-2.618,5.836-5.836,5.836H422.045z"/>
<path fill="#3876E1" d="M290.492,13.893c-3.219,0-5.837-2.619-5.837-5.837V7.837c0-3.218,2.618-5.837,5.837-5.837
	s5.837,2.619,5.837,5.837v0.219C296.329,11.275,293.711,13.893,290.492,13.893z"/>
<path fill="#3876E1" d="M285.33,214.45c-3.218,0-5.836-2.618-5.836-5.836s2.618-5.836,5.836-5.836h0.221
	c3.218,0,5.836,2.618,5.836,5.836s-2.618,5.836-5.836,5.836H285.33z"/>
<path fill="#3876E1" d="M147.34,215.432c-3.218,0-5.836-2.618-5.836-5.836s2.618-5.836,5.836-5.836h0.22
	c3.218,0,5.836,2.618,5.836,5.836s-2.618,5.836-5.836,5.836H147.34z"/>
<path fill="#3876E1" d="M87.75,169.394c-3.218,0-5.836-2.618-5.836-5.836s2.618-5.837,5.836-5.837h0.22
	c3.218,0,5.836,2.618,5.836,5.836s-2.618,5.837-5.836,5.837H87.75z"/>
<path fill="#3876E1" d="M44.68,89.721c-3.218,0-5.837-2.618-5.837-5.836s2.619-5.836,5.837-5.836h0.219
	c3.218,0,5.836,2.618,5.836,5.836s-2.618,5.836-5.836,5.836H44.68z"/>
<path fill="#3876E1" d="M207.224,316.275c-3.218,0-5.836-2.618-5.836-5.836c0-3.219,2.618-5.837,5.836-5.837h0.22
	c3.218,0,5.836,2.618,5.836,5.837c0,3.218-2.618,5.836-5.836,5.836H207.224z"/>
<path fill="#3876E1" d="M503.943,423.576c-3.218,0-5.836-2.618-5.836-5.837c0-3.218,2.618-5.836,5.836-5.836h0.22
	c3.219,0,5.837,2.618,5.837,5.836c0,3.219-2.618,5.837-5.837,5.837H503.943z"/>
<path fill="#3876E1" d="M477.831,240.155c-3.218,0-5.836-2.618-5.836-5.836s2.618-5.836,5.836-5.836h0.221
	c3.218,0,5.836,2.618,5.836,5.836s-2.618,5.836-5.836,5.836H477.831z"/>
<path fill="#3876E1" d="M364.439,307.937c-3.219,0-5.837-2.618-5.837-5.836c0-3.219,2.618-5.837,5.837-5.837h0.22
	c3.219,0,5.837,2.618,5.837,5.837c0,3.218-2.618,5.836-5.837,5.836H364.439z"/>
<path fill="#3876E1" d="M424.029,354.978c-3.218,0-5.836-2.618-5.836-5.836c0-3.219,2.618-5.837,5.836-5.837h0.22
	c3.219,0,5.837,2.618,5.837,5.837c0,3.218-2.618,5.836-5.837,5.836H424.029z"/>
<path fill="#3876E1" d="M7.836,277.081c-3.218,0-5.836-2.618-5.836-5.837c0-3.218,2.618-5.836,5.836-5.836h0.22
	c3.218,0,5.836,2.618,5.836,5.836c0,3.219-2.618,5.837-5.836,5.837H7.836z"/>
<path fill="#3876E1" d="M36.731,434.422c-3.218,0-5.836-2.618-5.836-5.837c0-3.218,2.618-5.836,5.836-5.836h0.22
	c3.218,0,5.836,2.618,5.836,5.836c0,3.219-2.618,5.837-5.836,5.837H36.731z"/>
<path fill="#3876E1" d="M149.441,510c-3.218,0-5.836-2.618-5.836-5.837v-0.22c0-3.219,2.618-5.837,5.836-5.837
	s5.836,2.618,5.836,5.837v0.22C155.278,507.382,152.66,510,149.441,510z"/>
<path fill="#3876E1" d="M90.458,354.027"/>
<path fill="#3876E1" d="M90.458,354.027"/>
</svg>
