<?xml version="1.0" encoding="utf-8"?>
<!-- Generator: Adobe Illustrator 17.0.0, SVG Export Plug-In . SVG Version: 6.00 Build 0)  -->
<!DOCTYPE svg PUBLIC "-//W3C//DTD SVG 1.1//EN" "http://www.w3.org/Graphics/SVG/1.1/DTD/svg11.dtd">
<svg version="1.1" id="Layer_1" xmlns="http://www.w3.org/2000/svg" xmlns:xlink="http://www.w3.org/1999/xlink" x="0px" y="0px"
	 width="99px" height="95px" viewBox="0 0 507.996 486.701" enable-background="new 0 0 507.996 486.701"
	 xml:space="preserve">
<g>
	<path fill="#3876E1" d="M419.166,486.7c-9.045,0-17.925-3.03-25.004-8.532c-1.315-1.022-2.153-2.493-2.361-4.145
		c-0.207-1.651,0.241-3.284,1.262-4.598c1.19-1.532,2.986-2.41,4.927-2.41c1.394,0,2.713,0.455,3.818,1.312
		c4.904,3.81,11.069,5.91,17.357,5.91c8.928,0,17.159-4.072,22.585-11.172c7.786-10.205,19.623-16.056,32.478-16.056
		c12.848,0,24.689,5.853,32.487,16.058c1.011,1.322,1.445,2.959,1.225,4.609c-0.22,1.649-1.07,3.114-2.392,4.124
		c-1.097,0.837-2.403,1.281-3.778,1.281c-1.961,0-3.768-0.893-4.956-2.447c-5.42-7.094-13.652-11.163-22.585-11.163
		c-8.934,0-17.162,4.067-22.572,11.158C443.851,480.842,432.008,486.7,419.166,486.7"/>
	<path fill="#3876E1" d="M88.818,486.701c-12.844,0-24.685-5.857-32.488-16.068c-5.419-7.09-13.647-11.158-22.574-11.158
		c-8.93,0-17.158,4.068-22.574,11.159c-1.189,1.556-2.995,2.449-4.956,2.449c-1.375,0-2.682-0.444-3.779-1.282
		c-2.73-2.085-3.254-6.003-1.168-8.734c7.796-10.202,19.634-16.054,32.478-16.054c12.843,0,24.68,5.851,32.475,16.052
		c5.425,7.1,13.657,11.172,22.585,11.172c6.278,0,12.437-2.093,17.344-5.895c1.942-1.503,3.703-3.281,5.234-5.282
		c7.795-10.202,19.635-16.053,32.484-16.053c12.852,0,24.691,5.855,32.478,16.061c5.418,7.098,13.645,11.168,22.573,11.168
		c8.926,0,17.158-4.072,22.585-11.172c7.665-10.03,19.304-15.877,31.931-16.041l1.974-0.025v-41.68l-2.042,0.043
		c-8.684,0.183-16.688,4.245-21.961,11.145c-7.805,10.21-19.646,16.067-32.488,16.067c-12.849,0-24.687-5.858-32.479-16.071
		c-5.41-7.091-13.638-11.158-22.572-11.158c-8.933,0-17.165,4.069-22.585,11.162c-2.192,2.863-4.716,5.409-7.503,7.565
		c-7.079,5.483-15.947,8.503-24.974,8.503c-12.844,0-24.685-5.857-32.488-16.067c-5.419-7.091-13.647-11.159-22.574-11.159
		c-8.929,0-17.157,4.068-22.575,11.159c-1.188,1.556-2.994,2.449-4.955,2.449c-1.375,0-2.682-0.444-3.779-1.282
		c-2.73-2.084-3.254-6.003-1.168-8.734c7.796-10.202,19.634-16.054,32.478-16.054c12.843,0,24.68,5.852,32.476,16.055
		c5.426,7.1,13.658,11.172,22.585,11.172c6.28,0,12.439-2.093,17.344-5.894c1.942-1.503,3.703-3.281,5.234-5.282
		c4.76-6.229,11.118-10.923,18.385-13.575l1.315-0.48v-40.744l-0.006-0.109c0.002-36.836-14.125-71.731-39.776-98.184
		c-2.392-2.466-2.331-6.419,0.135-8.81c1.169-1.134,2.709-1.758,4.337-1.758c1.701,0,3.29,0.673,4.474,1.894
		c10.944,11.288,20.045,24.083,27.048,38.029l6.389,21.717l-2.601-79.812l-1.573-0.344c-13.976-3.054-24.119-15.652-24.119-29.957
		v-93.992c0-14.441,10.256-27.066,24.385-30.02l1.591-0.333V60.175c0-3.436,2.795-6.231,6.231-6.231
		c3.435,0,6.231,2.795,6.231,6.231v12.93l1.401,0.44c12.859,4.037,21.499,15.799,21.499,29.267v93.992
		c0,13.384-8.951,25.451-21.766,29.347l-1.418,0.431v166.277l1.924,0.073c12.214,0.466,23.468,6.303,30.877,16.014
		c5.417,7.098,13.644,11.168,22.573,11.168c8.926,0,17.158-4.072,22.585-11.172c7.643-10.002,19.247-15.848,31.836-16.039
		l2.008-0.03l-0.038-2.009c-1.458-75.405-21.658-146.673-56.881-200.676c-0.909-1.393-1.221-3.058-0.878-4.686
		c0.342-1.629,1.299-3.027,2.693-3.936c1.017-0.663,2.19-1.014,3.396-1.014c2.118,0,4.072,1.058,5.227,2.829
		c18.199,27.904,32.538,60.047,42.617,95.537l6.215,27.335l-2.291-107.492l-1.557-0.354c-15.861-3.6-27.373-18.016-27.373-34.278
		V52.87c0-16.259,11.511-30.676,27.369-34.278l1.558-0.354V6.231c0-3.435,2.795-6.231,6.231-6.231s6.23,2.796,6.23,6.231v12.007
		l1.557,0.354c15.86,3.602,27.372,18.019,27.372,34.278v111.258c0,16.258-11.51,30.674-27.368,34.278l-1.557,0.353v151.039
		l-0.22,12.109c10.216-24.462,28.896-57.932,47.501-77.117c1.183-1.221,2.772-1.894,4.472-1.894c1.628,0,3.169,0.625,4.338,1.759
		c2.467,2.391,2.528,6.343,0.135,8.81c-27.304,28.156-45.548,63.297-52.758,101.626l-0.278,1.478l1.343,0.677
		c5.404,2.727,10.051,6.557,13.813,11.384c0.12,0.145,0.19,0.23,0.257,0.318c5.415,7.092,13.643,11.161,22.57,11.161
		s17.155-4.069,22.573-11.165c7.421-9.713,18.682-15.549,30.894-16.012l1.924-0.073V226.415l-1.321-0.477
		c-10.302-3.714-17.224-13.555-17.224-24.488v-76.123c0-10.934,6.922-20.775,17.225-24.489l1.321-0.476v-9.567
		c0-3.435,2.795-6.231,6.23-6.231c3.436,0,6.232,2.796,6.232,6.231v8.941l1.501,0.386c11.503,2.962,19.537,13.326,19.537,25.204
		v76.124c0,11.879-8.034,22.244-19.538,25.205l-1.501,0.387l-1.63,73.174l5.417-15.03c7.006-13.944,16.103-26.734,27.042-38.014
		c1.183-1.221,2.772-1.893,4.474-1.893c1.627,0,3.168,0.624,4.338,1.758c2.466,2.39,2.527,6.343,0.134,8.809
		c-25.603,26.403-39.729,61.234-39.776,98.077v40.964l1.313,0.481c7.262,2.654,13.614,7.348,18.369,13.573
		c1.534,2.003,3.285,3.769,5.205,5.252c4.913,3.817,11.084,5.921,17.372,5.921c8.927,0,17.159-4.072,22.585-11.172
		c7.786-10.205,19.623-16.057,32.477-16.057c12.848,0,24.689,5.853,32.487,16.057c1.011,1.322,1.446,2.959,1.226,4.609
		c-0.221,1.65-1.07,3.116-2.394,4.126c-1.095,0.837-2.402,1.281-3.776,1.281c-1.961,0-3.768-0.893-4.957-2.449
		c-5.42-7.092-13.651-11.161-22.585-11.161c-8.934,0-17.161,4.067-22.571,11.158c-7.806,10.212-19.649,16.071-32.491,16.071
		c-9.045,0-17.925-3.03-25.005-8.532c-2.771-2.141-5.284-4.674-7.471-7.535c-5.422-7.093-13.651-11.162-22.576-11.162
		c-8.932,0-17.163,4.069-22.585,11.161c-7.796,10.208-19.633,16.063-32.477,16.063c-12.692,0-24.442-5.741-32.236-15.75
		c-0.116-0.141-0.182-0.222-0.245-0.306c-1.332-1.742-2.85-3.321-4.517-4.701l-2.909-2.406l-0.357,3.758
		c-0.594,6.242-0.899,12.606-0.907,18.919v17.312l1.261,0.501c6.7,2.663,12.608,7.108,17.084,12.854
		c0.121,0.145,0.191,0.23,0.258,0.318c5.415,7.092,13.643,11.161,22.57,11.161s17.155-4.069,22.573-11.165
		c7.797-10.205,19.639-16.059,32.489-16.059c5.394,0,10.642,1.034,15.6,3.072c1.539,0.633,2.741,1.827,3.381,3.364
		c0.641,1.536,0.645,3.23,0.012,4.77c-0.965,2.347-3.227,3.863-5.764,3.863c-0.811,0-1.609-0.158-2.369-0.471
		c-3.445-1.417-7.099-2.135-10.859-2.135c-8.932,0-17.163,4.069-22.585,11.161c-7.796,10.209-19.633,16.063-32.477,16.063
		c-12.692,0-24.442-5.74-32.236-15.749c-0.121-0.147-0.19-0.232-0.258-0.32c-5.414-7.086-13.642-11.155-22.568-11.155
		c-8.925,0-17.152,4.069-22.574,11.161c-7.805,10.211-19.646,16.068-32.488,16.068c-12.849,0-24.687-5.859-32.479-16.071
		c-5.41-7.091-13.638-11.158-22.572-11.158c-8.932,0-17.165,4.069-22.586,11.161c-2.189,2.863-4.714,5.409-7.502,7.566
		C106.713,483.681,97.845,486.701,88.818,486.701 M136.071,84.605c-10.04,0-18.207,8.168-18.207,18.207v93.992
		c0,10.039,8.167,18.207,18.207,18.207c10.039,0,18.207-8.168,18.207-18.207v-93.992C154.278,92.773,146.11,84.605,136.071,84.605
		 M371.922,111.763c-7.477,0-13.56,6.084-13.56,13.561v76.124c0,7.478,6.083,13.561,13.56,13.561
		c7.478,0,13.562-6.084,13.562-13.561v-76.124C385.484,117.847,379.4,111.763,371.922,111.763 M261.648,30.174
		c-12.515,0-22.696,10.182-22.696,22.696v111.258c0,12.515,10.181,22.696,22.696,22.696c12.515,0,22.695-10.181,22.695-22.696V52.87
		C284.343,40.356,274.163,30.174,261.648,30.174"/>
</g>
</svg>
