<?xml version="1.0" encoding="utf-8"?>
<!-- Generator: Adobe Illustrator 17.0.0, SVG Export Plug-In . SVG Version: 6.00 Build 0)  -->
<!DOCTYPE svg PUBLIC "-//W3C//DTD SVG 1.1//EN" "http://www.w3.org/Graphics/SVG/1.1/DTD/svg11.dtd">
<svg version="1.1" id="Layer_1" xmlns="http://www.w3.org/2000/svg" xmlns:xlink="http://www.w3.org/1999/xlink" x="0px" y="0px"
	 width="56px" height="64px" viewBox="0 0 119.417 107.792" enable-background="new 0 0 119.417 107.792"
	 xml:space="preserve">
<g>
	<g>
		<path fill="#3876E1" d="M43.5,73.5c2.206,0,4-1.794,4-4s-1.794-4-4-4s-4,1.794-4,4S41.294,73.5,43.5,73.5z M43.5,67.5
			c1.103,0,2,0.897,2,2s-0.897,2-2,2c-1.103,0-2-0.897-2-2S42.397,67.5,43.5,67.5z M44.5,19.5h-4c-0.552,0-1,0.447-1,1s0.448,1,1,1
			h4c0.552,0,1-0.447,1-1S45.052,19.5,44.5,19.5z M48.5,19.5h-1c-0.552,0-1,0.447-1,1s0.448,1,1,1h1c0.552,0,1-0.447,1-1
			S49.052,19.5,48.5,19.5z M61.5,28.5v-7.595c0-2.428-1.976-4.405-4.405-4.405h-25.19c-2.429,0-4.405,1.977-4.405,4.405v51.189
			c0,2.429,1.976,4.406,4.405,4.406h25.189c2.43,0,4.406-1.977,4.406-4.405V49.5h18v-21H61.5z M29.5,20.905
			c0-1.326,1.079-2.405,2.405-2.405h25.189c1.327,0,2.406,1.079,2.406,2.405V22.5h-30V20.905z M59.5,72.095
			c0,1.326-1.079,2.405-2.405,2.405h-25.19c-1.326,0-2.405-1.079-2.405-2.405V64.5h30V72.095z M59.5,62.5h-30v-38h30v4h-18v21h4v7
			l9.333-7H59.5V62.5z M77.5,47.5H54.167l-6.667,5v-5h-4v-17h34V47.5z M48.5,37.5h10c0.552,0,1-0.447,1-1s-0.448-1-1-1h-10
			c-0.552,0-1,0.447-1,1S47.948,37.5,48.5,37.5z M48.5,42.5h24c0.552,0,1-0.447,1-1s-0.448-1-1-1h-24c-0.552,0-1,0.447-1,1
			S47.948,42.5,48.5,42.5z"/>
	</g>
</g>
</svg>
