<svg xmlns="http://www.w3.org/2000/svg" width="29.333" height="29.083" viewBox="239.917 208.5 29.333 29.083"><path fill="none" stroke="#000" stroke-linecap="round" stroke-linejoin="round" stroke-miterlimit="10" d="M250.75 221.958c1.2 2.358 2.642 3.792 5 5l1.65-1.757a.828.828 0 0 1 .85-.2c.933.308 1.633.956 2.667.956.458 0 .833.375.833.833v3.333a.836.836 0 0 1-.833.833c-7.825 0-14.167-7.342-14.167-15.167 0-.458.375-.833.833-.833h3.333c.458 0 .833.375.833.833 0 1.042.652 2.733.96 3.667a.836.836 0 0 1-.208.85l-1.751 1.652z"/><path fill="none" stroke="#000" stroke-linecap="round" stroke-linejoin="round" stroke-miterlimit="10" d="M261.75 227.958c2.383-.156 5.523.879 4.5 3h-.009c-2.53 3.627-6.733 6-11.491 6-7.732 0-14-6.268-14-14s6.268-14 14-14 14 6.268 14 14"/></svg>