<?xml version="1.0" encoding="utf-8"?>
<!-- Generator: Adobe Illustrator 17.0.0, SVG Export Plug-In . SVG Version: 6.00 Build 0)  -->
<!DOCTYPE svg PUBLIC "-//W3C//DTD SVG 1.1//EN" "http://www.w3.org/Graphics/SVG/1.1/DTD/svg11.dtd">
<svg version="1.1" id="object" xmlns="http://www.w3.org/2000/svg" xmlns:xlink="http://www.w3.org/1999/xlink" x="0px" y="0px"
	 width="50px" height="17px" viewBox="64.886 110.342 306.08 103.716"
	 enable-background="new 64.886 110.342 306.08 103.716" xml:space="preserve">
<g>
	<path fill="#005396" d="M340.068,136.081c-8.878,0-17.687-3.049-24.805-8.584c-3.03-2.357-5.503-4.975-7.296-7.655
		c-1.623,2.644-3.854,5.217-6.585,7.525c-6.576,5.556-14.912,8.616-23.474,8.616c-13.124,0-25.205-7.47-30.911-15.875
		c-4.696,8.255-14.936,15.875-29.071,15.875c-14.362,0-25.044-7.616-30.056-15.773c-4.99,8.157-15.626,15.773-29.925,15.773
		c-8.751,0-17.152-3.054-23.656-8.6c-2.544-2.17-4.646-4.587-6.213-7.089c-5.238,8.478-16.577,15.689-30.112,15.689
		c-20.432,0-33.078-13.309-33.078-25.641h6.323c0,9.33,10.751,19.319,26.755,19.319c16.174,0,26.904-11.628,26.904-19.319h6.323
		c0,6.811,10.158,19.319,26.754,19.319c15.521,0,26.757-11.539,26.757-19.319h6.322c0,6.811,10.214,19.319,26.902,19.319
		c16.82,0,25.619-12.577,25.619-19.319h6.323c0,6.613,11.841,19.319,28.04,19.319c16.336,0,26.756-12.686,26.756-19.319h6.322
		c0,6.646,12.282,19.416,29.082,19.416c15.389,0,24.576-7.258,24.576-19.416h6.322C370.966,126.218,359.127,136.081,340.068,136.081
		z"/>
	<path fill="#0065A8" d="M340.068,175.069c-8.878,0-17.687-3.048-24.805-8.584c-3.03-2.356-5.503-4.975-7.296-7.655
		c-1.623,2.643-3.854,5.217-6.585,7.525c-6.576,5.556-14.912,8.616-23.474,8.616c-13.124,0-25.205-7.47-30.911-15.876
		c-4.696,8.256-14.936,15.876-29.071,15.876c-14.362,0-25.044-7.616-30.056-15.773c-4.99,8.157-15.626,15.773-29.925,15.773
		c-8.751,0-17.152-3.055-23.656-8.601c-2.544-2.169-4.646-4.587-6.213-7.089c-5.238,8.478-16.577,15.689-30.112,15.689
		c-20.432,0-33.078-13.31-33.078-25.641h6.323c0,9.329,10.751,19.318,26.755,19.318c16.174,0,26.904-11.627,26.904-19.318h6.323
		c0,6.81,10.158,19.318,26.754,19.318c15.521,0,26.757-11.54,26.757-19.318h6.322c0,6.81,10.214,19.318,26.902,19.318
		c16.82,0,25.619-12.577,25.619-19.318h6.323c0,6.612,11.841,19.318,28.04,19.318c16.336,0,26.756-12.686,26.756-19.318h6.322
		c0,6.646,12.282,19.416,29.082,19.416c15.389,0,24.576-7.259,24.576-19.416h6.322C370.966,165.206,359.127,175.069,340.068,175.069
		z"/>
	<path fill="#0084D6" d="M340.068,214.058c-8.878,0-17.687-3.048-24.805-8.584c-3.03-2.357-5.503-4.975-7.296-7.655
		c-1.623,2.644-3.854,5.217-6.585,7.525c-6.576,5.556-14.912,8.615-23.474,8.615c-13.124,0-25.205-7.47-30.911-15.875
		c-4.696,8.256-14.936,15.875-29.071,15.875c-14.362,0-25.044-7.615-30.056-15.773c-4.99,8.158-15.626,15.773-29.925,15.773
		c-8.751,0-17.152-3.054-23.656-8.6c-2.544-2.17-4.646-4.587-6.213-7.089c-5.238,8.478-16.577,15.689-30.112,15.689
		c-20.432,0-33.078-13.309-33.078-25.641h6.323c0,9.33,10.751,19.319,26.755,19.319c16.174,0,26.904-11.628,26.904-19.319h6.323
		c0,6.811,10.158,19.319,26.754,19.319c15.521,0,26.757-11.54,26.757-19.319h6.322c0,6.811,10.214,19.319,26.902,19.319
		c16.82,0,25.619-12.577,25.619-19.319h6.323c0,6.613,11.841,19.319,28.04,19.319c16.336,0,26.756-12.685,26.756-19.319h6.322
		c0,6.647,12.282,19.416,29.082,19.416c15.389,0,24.576-7.258,24.576-19.416h6.322C370.966,204.196,359.127,214.058,340.068,214.058
		z"/>
</g>
</svg>
