<?xml version="1.0" standalone="no"?>
<!DOCTYPE svg PUBLIC "-//W3C//DTD SVG 20010904//EN"
 "http://www.w3.org/TR/2001/REC-SVG-20010904/DTD/svg10.dtd">
<svg version="1.0" xmlns="http://www.w3.org/2000/svg"
 width="24.000000pt" height="24.000000pt" viewBox="0 0 24.000000 24.000000"
 preserveAspectRatio="xMidYMid meet">
<metadata>
Created by potrace 1.15, written by Peter Selinger 2001-2017
</metadata>
<g transform="translate(0.000000,24.000000) scale(0.100000,-0.100000)"
fill="#000000" stroke="none">
<path d="M27 212 c-35 -36 -38 -106 -7 -145 24 -31 81 -45 121 -30 24 9 31 7
50 -13 25 -26 49 -32 49 -11 0 8 -11 24 -24 36 -20 19 -22 26 -13 50 15 40 1
97 -30 121 -40 32 -112 28 -146 -8z m128 -17 c51 -50 18 -135 -52 -135 -42 0
-83 38 -83 75 0 16 12 38 29 56 36 36 73 37 106 4z"/>
</g>
</svg>
