<svg xmlns="http://www.w3.org/2000/svg" width="512" height="512"><path fill="#1E2D41" d="M153.703 337.113h282.113c31.989 0 58.085-26.096 58.085-58.085V159.07c0-.21 0-.421-.105-.631 0-.21-.105-.526-.105-.737s-.105-.421-.105-.631c-.105-.21-.105-.421-.21-.737-.105-.21-.105-.421-.21-.631-.105-.21-.105-.421-.21-.631a5.21 5.21 0 0 1-.316-.737c-.105-.21-.21-.421-.316-.526l-.316-.631c-.105-.21-.21-.316-.316-.526-.105-.21-.316-.421-.421-.631-.105-.21-.21-.316-.421-.526-.105-.21-.316-.316-.421-.526s-.316-.316-.421-.526-.316-.316-.421-.421l-.526-.526c-.21-.105-.316-.316-.526-.421-.21-.105-.421-.316-.631-.421-.21-.105-.316-.21-.526-.316-.21-.105-.421-.21-.631-.421l-.631-.316-.631-.316-.631-.316c-.21-.105-.421-.105-.631-.21-.21-.105-.526-.21-.737-.21-.21 0-.421-.105-.526-.105-.316-.105-.526-.105-.842-.105-.105 0-.21-.105-.421-.105l-357.56-49.351V47.004c0-.526 0-1.052-.105-1.473 0-.105 0-.21-.105-.421 0-.316-.105-.631-.105-.947-.105-.316-.105-.526-.21-.842 0-.21-.105-.316-.105-.526l-.316-.947c0-.105-.105-.316-.105-.421a3.13 3.13 0 0 0-.421-.842c-.105-.105-.105-.316-.21-.421-.105-.21-.21-.421-.421-.631-.105-.21-.21-.316-.316-.526-.105-.21-.21-.316-.316-.526s-.316-.421-.421-.631l-.316-.316-.631-.631-.316-.316c-.21-.21-.421-.421-.737-.631-.105-.105-.316-.21-.421-.316-.21-.21-.421-.316-.631-.526-.316-.21-.631-.421-.842-.526-.105-.105-.21-.105-.316-.21-.421-.21-.947-.421-1.368-.631L37.849 1.125c-7.261-3.052-15.574.315-18.625 7.576s.316 15.574 7.576 18.625l68.818 29.043V367.63c0 29.463 22.098 53.876 50.614 57.559-5.156 8.629-8.208 18.73-8.208 29.463 0 31.673 25.781 57.348 57.348 57.348s57.349-25.78 57.349-57.348c0-10.523-2.841-20.519-7.892-28.937h127.745c-5.051 8.523-7.892 18.415-7.892 28.937 0 31.673 25.781 57.348 57.349 57.348s57.348-25.78 57.348-57.348-25.781-57.349-57.348-57.349H153.703c-16.415 0-29.674-13.364-29.674-29.674v-38.513c8.629 5.051 18.836 7.997 29.674 7.997zm70.713 117.433c0 15.994-13.048 28.937-28.937 28.937s-28.937-13.048-28.937-28.937 13.048-28.937 28.937-28.937 28.937 12.943 28.937 28.937zm226.658 0c0 15.994-13.048 28.937-28.937 28.937S393.2 470.435 393.2 454.546s13.048-28.937 28.937-28.937 28.937 12.943 28.937 28.937zm-15.258-145.844H153.703c-16.415 0-29.674-13.364-29.674-29.674V125.502l341.46 47.036v106.384c.001 16.522-13.363 29.78-29.673 29.78z"/></svg>