<?xml version="1.0" standalone="no"?>
<!DOCTYPE svg PUBLIC "-//W3C//DTD SVG 20010904//EN"
 "http://www.w3.org/TR/2001/REC-SVG-20010904/DTD/svg10.dtd">
<svg version="1.0" xmlns="http://www.w3.org/2000/svg"
 width="29.000000pt" height="29.000000pt" viewBox="0 0 29.000000 29.000000"
 preserveAspectRatio="xMidYMid meet">
<metadata>
Created by potrace 1.15, written by Peter Selinger 2001-2017
</metadata>
<g transform="translate(0.000000,29.000000) scale(0.100000,-0.100000)"
fill="#000000" stroke="none">
<path d="M63 270 c-88 -53 -84 -208 6 -255 45 -23 121 -20 162 8 43 29 50 63
16 76 -14 6 -28 15 -32 21 -3 6 -22 9 -40 8 -43 -3 -48 2 -49 54 -1 41 -3 43
-33 46 -31 3 -33 1 -33 -28 0 -67 66 -140 126 -140 19 0 34 5 34 10 0 6 7 10
15 10 22 0 8 -24 -24 -43 -37 -22 -95 -22 -131 -1 -108 65 -61 234 65 234 63
0 125 -54 125 -109 0 -12 5 -21 10 -21 15 0 12 47 -5 81 -23 44 -71 69 -130
69 -32 0 -62 -7 -82 -20z"/>
</g>
</svg>
