<svg xmlns="http://www.w3.org/2000/svg" width="19.97" height="17"><defs><style>.cls-1{fill:#b3b6b9;fill-rule:evenodd}</style></defs><path id="Shape_2_copy" data-name="Shape 2 copy" class="cls-1" d="M1888.71 6037.07l-18.28 7.19a.672.672 0 0 0 .05 1.27l4.65 1.38 1.73 5.56a.8.8 0 0 0 1.33.32l2.41-2.48 4.71 3.5a.988.988 0 0 0 1.55-.6l3.12-15.07a.944.944 0 0 0-1.27-1.07zm-2.29 3.34l-8.49 7.58a.435.435 0 0 0-.15.29l-.33 2.94a.086.086 0 0 1-.17.01l-1.35-4.37a.465.465 0 0 1 .2-.53l10.03-6.28a.223.223 0 0 1 .26.36zm0 0" transform="translate(-1870 -6037)"/></svg>