<svg xmlns="http://www.w3.org/2000/svg" width="512" height="512"><path fill="#1E2D41" d="M475.8 368.048c-15.112-15.108-40.4-28.296-80.264-48.236-20.096-10.048-53.544-26.764-61.652-34.42 33.956-41.736 53.664-88.876 53.664-130.14 0-28 0-62.844-15.672-93.92C357.748 33.344 326.176 0 256.008 0 185.824 0 154.252 33.344 140.14 61.328c-15.692 31.08-15.692 65.92-15.692 93.92 0 41.28 19.692 88.408 53.668 130.14-8.128 7.672-41.572 24.392-61.668 34.42-39.852 19.936-65.14 33.124-80.264 48.236C2.708 401.544.176 457.748.004 468.684a42.689 42.689 0 0 0 12.268 30.592 42.695 42.695 0 0 0 30.38 12.72h426.676a42.696 42.696 0 0 0 30.4-12.72 42.772 42.772 0 0 0 12.268-30.608c-.172-10.916-2.724-67.12-36.196-100.62zm1.14 108.764c-2.032 2.048-4.736 3.188-7.612 3.188H42.652a10.664 10.664 0 0 1-7.58-3.188 10.804 10.804 0 0 1-3.08-7.64c.092-5.36 1.564-53.22 26.82-78.484 11.66-11.656 36.068-24.296 71.952-42.252 38.304-19.14 59.544-30.548 69.328-39.796l21.596-20.42-18.752-23.032c-29.536-36.28-46.492-76.36-46.492-109.936 0-25.892 0-55.22 12.252-79.5C183.368 46.72 212.716 32 256.008 32c43.256 0 72.636 14.72 87.296 43.736 12.252 24.296 12.252 53.624 12.252 79.516 0 33.564-16.94 73.64-46.512 109.936l-18.752 23.048 21.6 20.408c9.78 9.236 31.004 20.64 69.324 39.796 35.884 17.936 60.292 30.58 71.952 42.252 20.552 20.548 26.536 59 26.816 78.484.052 2.84-1.06 5.62-3.044 7.636z"/></svg>