<?xml version="1.0" standalone="no"?>
<!DOCTYPE svg PUBLIC "-//W3C//DTD SVG 20010904//EN"
 "http://www.w3.org/TR/2001/REC-SVG-20010904/DTD/svg10.dtd">
<svg version="1.0" xmlns="http://www.w3.org/2000/svg"
 width="24.000000pt" height="24.000000pt" viewBox="0 0 24.000000 24.000000"
 preserveAspectRatio="xMidYMid meet">
<metadata>
Created by potrace 1.15, written by Peter Selinger 2001-2017
</metadata>
<g transform="translate(0.000000,24.000000) scale(0.100000,-0.100000)"
fill="#000000" stroke="none">
<path d="M64 215 c-16 -24 -15 -54 1 -97 4 -11 0 -18 -14 -23 -33 -10 -51 -34
-51 -66 l0 -29 120 0 120 0 0 29 c0 32 -18 56 -51 66 -14 5 -18 12 -14 23 29
75 7 122 -55 122 -31 0 -43 -5 -56 -25z m84 -7 c16 -16 15 -43 -3 -78 -15 -28
-14 -29 27 -57 69 -47 63 -53 -52 -53 -115 0 -121 6 -52 53 41 28 42 29 27 57
-25 49 -14 90 25 90 9 0 21 -5 28 -12z"/>
</g>
</svg>
