<?xml version="1.0" encoding="utf-8"?>
<!-- Generator: Adobe Illustrator 17.0.0, SVG Export Plug-In . SVG Version: 6.00 Build 0)  -->
<!DOCTYPE svg PUBLIC "-//W3C//DTD SVG 1.1//EN" "http://www.w3.org/Graphics/SVG/1.1/DTD/svg11.dtd">
<svg version="1.1" id="Layer_1" xmlns="http://www.w3.org/2000/svg" xmlns:xlink="http://www.w3.org/1999/xlink" x="0px" y="0px"
	 width="44px" height="44px" viewBox="0 0 508.52 508.52" enable-background="new 0 0 508.52 508.52" xml:space="preserve">
<g>
	<path fill="#3876E1" d="M254.26,0C113.845,0,0,113.845,0,254.259c0,140.415,113.845,254.26,254.26,254.26
		s254.26-113.845,254.26-254.26C508.52,113.845,394.675,0,254.26,0 M254.26,476.737c-122.68,0-222.477-99.829-222.477-222.478
		c0-122.679,99.797-222.476,222.477-222.476c122.649,0,222.478,99.797,222.478,222.476
		C476.738,376.908,376.908,476.737,254.26,476.737"/>
	<path fill="#3876E1" d="M254.26,95.347c-17.544,0-31.782,14.239-31.782,31.782v158.912c0,17.544,14.239,31.782,31.782,31.782
		s31.782-14.239,31.782-31.782V127.13C286.042,109.586,271.804,95.347,254.26,95.347"/>
	<path fill="#3876E1" d="M254.26,349.099c17.553,0,31.782,14.229,31.782,31.782s-14.229,31.782-31.782,31.782
		c-17.553,0-31.782-14.229-31.782-31.782S236.707,349.099,254.26,349.099"/>
</g>
</svg>
