<svg xmlns="http://www.w3.org/2000/svg" width="16" height="16" viewBox="0 0 16 16">
  <metadata><?xpacket begin="﻿" id="W5M0MpCehiHzreSzNTczkc9d"?>
<x:xmpmeta xmlns:x="adobe:ns:meta/" x:xmptk="Adobe XMP Core 5.6-c142 79.160924, 2017/07/13-01:06:39        ">
   <rdf:RDF xmlns:rdf="http://www.w3.org/1999/02/22-rdf-syntax-ns#">
      <rdf:Description rdf:about=""/>
   </rdf:RDF>
</x:xmpmeta>
                                                                                                    
                                                                                                    
                                                                                                    
                                                                                                    
                                                                                                    
                                                                                                    
                                                                                                    
                                                                                                    
                                                                                                    
                                                                                                    
                                                                                                    
                                                                                                    
                                                                                                    
                                                                                                    
                                                                                                    
                                                                                                    
                                                                                                    
                                                                                                    
                                                                                                    
                                                                                                    
                           
<?xpacket end="w"?></metadata>
<defs>
    <style>
      .cls-1 {
        fill: #3876e0;
        fill-rule: evenodd;
      }
    </style>
  </defs>
  <path id="User" class="cls-1" d="M378,374H364a1,1,0,0,1-1-1v-1h0.1a5.988,5.988,0,0,1,4.547-4.828A3.979,3.979,0,0,1,367,365v-3a4,4,0,0,1,8,0v3a3.979,3.979,0,0,1-.648,2.172A5.988,5.988,0,0,1,378.9,372H379v1A1,1,0,0,1,378,374Zm-5-12a2,2,0,0,0-4,0v3a2,2,0,0,0,4,0v-3Zm0,7h-4a3.992,3.992,0,0,0-3.859,3h11.718A3.992,3.992,0,0,0,373,369Z" transform="translate(-363 -358)"/>
</svg>
