<svg xmlns="http://www.w3.org/2000/svg" width="16" height="16" viewBox="0 0 16 16">
  <metadata><?xpacket begin="﻿" id="W5M0MpCehiHzreSzNTczkc9d"?>
<x:xmpmeta xmlns:x="adobe:ns:meta/" x:xmptk="Adobe XMP Core 5.6-c142 79.160924, 2017/07/13-01:06:39        ">
   <rdf:RDF xmlns:rdf="http://www.w3.org/1999/02/22-rdf-syntax-ns#">
      <rdf:Description rdf:about=""/>
   </rdf:RDF>
</x:xmpmeta>
                                                                                                    
                                                                                                    
                                                                                                    
                                                                                                    
                                                                                                    
                                                                                                    
                                                                                                    
                                                                                                    
                                                                                                    
                                                                                                    
                                                                                                    
                                                                                                    
                                                                                                    
                                                                                                    
                                                                                                    
                                                                                                    
                                                                                                    
                                                                                                    
                                                                                                    
                                                                                                    
                           
<?xpacket end="w"?></metadata>
<defs>
    <style>
      .cls-1 {
        fill: #3876e0;
        fill-rule: evenodd;
      }
    </style>
  </defs>
  <path id="Menu" class="cls-1" d="M376,553H362a1,1,0,0,1-1-1V538a1,1,0,0,1,1-1h14a1,1,0,0,1,1,1v14A1,1,0,0,1,376,553Zm-1-14H363v12h12V539Zm-6,8h4v2h-4v-2Zm0-3h4v2h-4v-2Zm0-3h4v2h-4v-2Zm-4,6h2v2h-2v-2Zm0-3h2v2h-2v-2Zm0-3h2v2h-2v-2Z" transform="translate(-361 -537)"/>
</svg>
