<svg xmlns="http://www.w3.org/2000/svg" width="19" height="19" viewBox="0 0 19 19">
  <metadata><?xpacket begin="﻿" id="W5M0MpCehiHzreSzNTczkc9d"?>
<x:xmpmeta xmlns:x="adobe:ns:meta/" x:xmptk="Adobe XMP Core 5.6-c142 79.160924, 2017/07/13-01:06:39        ">
   <rdf:RDF xmlns:rdf="http://www.w3.org/1999/02/22-rdf-syntax-ns#">
      <rdf:Description rdf:about=""/>
   </rdf:RDF>
</x:xmpmeta>
                                                                                                    
                                                                                                    
                                                                                                    
                                                                                                    
                                                                                                    
                                                                                                    
                                                                                                    
                                                                                                    
                                                                                                    
                                                                                                    
                                                                                                    
                                                                                                    
                                                                                                    
                                                                                                    
                                                                                                    
                                                                                                    
                                                                                                    
                                                                                                    
                                                                                                    
                                                                                                    
                           
<?xpacket end="w"?></metadata>
<defs>
    <style>
      .cls-1 {
        fill: #b3b6b9;
        fill-rule: evenodd;
      }
    </style>
  </defs>
  <path id="Forma_1_copy" data-name="Forma 1 copy" class="cls-1" d="M1838.76,6036h-8.52a5.245,5.245,0,0,0-5.24,5.24v8.51a5.247,5.247,0,0,0,5.24,5.25h8.52a5.247,5.247,0,0,0,5.24-5.25v-8.51A5.245,5.245,0,0,0,1838.76,6036Zm3.55,13.75a3.559,3.559,0,0,1-3.55,3.56h-8.52a3.559,3.559,0,0,1-3.55-3.56v-8.51a3.559,3.559,0,0,1,3.55-3.56h8.52a3.559,3.559,0,0,1,3.55,3.56v8.51h0Zm-7.81-9.15a4.9,4.9,0,1,0,4.9,4.9A4.908,4.908,0,0,0,1834.5,6040.6Zm0,8.11a3.21,3.21,0,1,1,3.21-3.21A3.214,3.214,0,0,1,1834.5,6048.71Zm5.1-9.54a1.243,1.243,0,0,0-.87.36,1.22,1.22,0,0,0,0,1.75,1.243,1.243,0,0,0,.87.36,1.266,1.266,0,0,0,.88-0.36A1.235,1.235,0,0,0,1839.6,6039.17Z" transform="translate(-1825 -6036)"/>
</svg>
