<svg xmlns="http://www.w3.org/2000/svg" width="25" height="25" viewBox="0 0 25 25">
  <metadata><?xpacket begin="﻿" id="W5M0MpCehiHzreSzNTczkc9d"?>
<x:xmpmeta xmlns:x="adobe:ns:meta/" x:xmptk="Adobe XMP Core 5.6-c142 79.160924, 2017/07/13-01:06:39        ">
   <rdf:RDF xmlns:rdf="http://www.w3.org/1999/02/22-rdf-syntax-ns#">
      <rdf:Description rdf:about=""/>
   </rdf:RDF>
</x:xmpmeta>
                                                                                                    
                                                                                                    
                                                                                                    
                                                                                                    
                                                                                                    
                                                                                                    
                                                                                                    
                                                                                                    
                                                                                                    
                                                                                                    
                                                                                                    
                                                                                                    
                                                                                                    
                                                                                                    
                                                                                                    
                                                                                                    
                                                                                                    
                                                                                                    
                                                                                                    
                                                                                                    
                           
<?xpacket end="w"?></metadata>
<defs>
    <style>
      .cls-1 {
        fill: #1e2d41;
        fill-rule: evenodd;
      }
    </style>
  </defs>
  <path id="Forma_1" data-name="Forma 1" class="cls-1" d="M670.5,5910.83a2.915,2.915,0,1,0-2.917-2.91A2.92,2.92,0,0,0,670.5,5910.83Zm0-5a2.085,2.085,0,1,1-2.083,2.09A2.09,2.09,0,0,1,670.5,5905.83Zm-0.074,16.99,6.392-9.24a9.1,9.1,0,0,0-.742-11.24,7.991,7.991,0,0,0-11.3,0,9.1,9.1,0,0,0-.751,11.23Zm-5.061-19.89a7.149,7.149,0,0,1,10.122,0,8.231,8.231,0,0,1,.655,10.17l-5.716,8.25-5.725-8.27A8.218,8.218,0,0,1,665.365,5902.93Zm10.184,14.99a0.417,0.417,0,0,0-.463.36,0.426,0.426,0,0,0,.365.47c4.382,0.51,6.716,1.9,6.716,2.71,0,1.13-4.439,2.71-11.667,2.71s-11.667-1.58-11.667-2.71c0-.81,2.334-2.2,6.716-2.71a0.426,0.426,0,0,0,.365-0.47,0.417,0.417,0,0,0-.463-0.36c-4.387.52-7.451,1.97-7.451,3.54,0,1.76,4.294,3.54,12.5,3.54s12.5-1.78,12.5-3.54C683,5919.89,679.936,5918.44,675.549,5917.92Z" transform="translate(-658 -5900)"/>
</svg>
