<?xml version="1.0" encoding="utf-8"?>
<!-- Generator: Adobe Illustrator 17.0.0, SVG Export Plug-In . SVG Version: 6.00 Build 0)  -->
<!DOCTYPE svg PUBLIC "-//W3C//DTD SVG 1.1//EN" "http://www.w3.org/Graphics/SVG/1.1/DTD/svg11.dtd">
<svg version="1.1" id="Layer_1" xmlns="http://www.w3.org/2000/svg" xmlns:xlink="http://www.w3.org/1999/xlink" x="0px" y="0px"
	 width="29.333px" height="29.083px" viewBox="239.917 208.5 29.333 29.083" enable-background="new 239.917 208.5 29.333 29.083"
	 xml:space="preserve">
<g>
	<g id="XMLID_116_">
		<path id="XMLID_247_" fill="none" stroke="#000000" stroke-linecap="round" stroke-linejoin="round" stroke-miterlimit="10" d="
			M250.75,221.958c1.2,2.358,2.642,3.792,5,5l1.65-1.757c0.225-0.225,0.558-0.3,0.85-0.2c0.933,0.308,1.633,0.956,2.667,0.956
			c0.458,0,0.833,0.375,0.833,0.833v3.333c0,0.458-0.375,0.833-0.833,0.833c-7.825,0-14.167-7.342-14.167-15.167
			c0-0.458,0.375-0.833,0.833-0.833h3.333c0.458,0,0.833,0.375,0.833,0.833c0,1.042,0.652,2.733,0.96,3.667
			c0.092,0.292,0.025,0.617-0.208,0.85L250.75,221.958z"/>
	</g>
	<path fill="none" stroke="#000000" stroke-linecap="round" stroke-linejoin="round" stroke-miterlimit="10" d="M261.75,227.958
		c2.383-0.156,5.523,0.879,4.5,3l-0.009,0c-2.53,3.627-6.733,6-11.491,6c-7.732,0-14-6.268-14-14c0-7.732,6.268-14,14-14
		s14,6.268,14,14"/>
</g>
</svg>
