<?xml version="1.0" encoding="utf-8"?>
<!-- Generator: Adobe Illustrator 17.0.0, SVG Export Plug-In . SVG Version: 6.00 Build 0)  -->
<!DOCTYPE svg PUBLIC "-//W3C//DTD SVG 1.1//EN" "http://www.w3.org/Graphics/SVG/1.1/DTD/svg11.dtd">
<svg version="1.1" id="Capa_1" xmlns="http://www.w3.org/2000/svg" xmlns:xlink="http://www.w3.org/1999/xlink" x="0px" y="0px"
	 width="512px" height="512px" viewBox="0 0 512 512" enable-background="new 0 0 512 512" xml:space="preserve">
<g>
	<path fill="#1E2D41" d="M153.703,337.113h282.113c31.989,0,58.085-26.096,58.085-58.085V160.333c0-0.105,0-0.316,0-0.421
		c0-0.316,0-0.526,0-0.842c0-0.21,0-0.421-0.105-0.631c0-0.21-0.105-0.526-0.105-0.737s-0.105-0.421-0.105-0.631
		c-0.105-0.21-0.105-0.421-0.21-0.737c-0.105-0.21-0.105-0.421-0.21-0.631c-0.105-0.21-0.105-0.421-0.21-0.631
		c-0.105-0.21-0.21-0.421-0.316-0.737c-0.105-0.21-0.21-0.421-0.316-0.526c-0.105-0.21-0.21-0.421-0.316-0.631
		c-0.105-0.21-0.21-0.316-0.316-0.526c-0.105-0.21-0.316-0.421-0.421-0.631c-0.105-0.21-0.21-0.316-0.421-0.526
		c-0.105-0.21-0.316-0.316-0.421-0.526s-0.316-0.316-0.421-0.526s-0.316-0.316-0.421-0.421c-0.21-0.21-0.316-0.316-0.526-0.526
		c-0.21-0.105-0.316-0.316-0.526-0.421c-0.21-0.105-0.421-0.316-0.631-0.421c-0.21-0.105-0.316-0.21-0.526-0.316
		c-0.21-0.105-0.421-0.21-0.631-0.421c-0.21-0.105-0.421-0.21-0.631-0.316c-0.21-0.105-0.421-0.21-0.631-0.316
		c-0.21-0.105-0.421-0.21-0.631-0.316c-0.21-0.105-0.421-0.105-0.631-0.21c-0.21-0.105-0.526-0.21-0.737-0.21
		c-0.21,0-0.421-0.105-0.526-0.105c-0.316-0.105-0.526-0.105-0.842-0.105c-0.105,0-0.21-0.105-0.421-0.105l-357.56-49.351V47.004
		c0-0.526,0-1.052-0.105-1.473c0-0.105,0-0.21-0.105-0.421c0-0.316-0.105-0.631-0.105-0.947c-0.105-0.316-0.105-0.526-0.21-0.842
		c0-0.21-0.105-0.316-0.105-0.526c-0.105-0.316-0.21-0.631-0.316-0.947c0-0.105-0.105-0.316-0.105-0.421
		c-0.105-0.316-0.21-0.526-0.421-0.842c-0.105-0.105-0.105-0.316-0.21-0.421c-0.105-0.21-0.21-0.421-0.421-0.631
		c-0.105-0.21-0.21-0.316-0.316-0.526c-0.105-0.21-0.21-0.316-0.316-0.526s-0.316-0.421-0.421-0.631
		c-0.105-0.105-0.21-0.21-0.316-0.316c-0.21-0.21-0.421-0.421-0.631-0.631c-0.105-0.105-0.21-0.21-0.316-0.316
		c-0.21-0.21-0.421-0.421-0.737-0.631c-0.105-0.105-0.316-0.21-0.421-0.316c-0.21-0.21-0.421-0.316-0.631-0.526
		c-0.316-0.21-0.631-0.421-0.842-0.526c-0.105-0.105-0.21-0.105-0.316-0.21c-0.421-0.21-0.947-0.421-1.368-0.631L37.849,1.125
		C30.588-1.927,22.275,1.44,19.224,8.701S19.54,24.275,26.8,27.326l68.818,29.043v64.399v10.207v78.289v69.976v88.39
		c0,29.463,22.098,53.876,50.614,57.559c-5.156,8.629-8.208,18.73-8.208,29.463c0,31.673,25.781,57.348,57.348,57.348
		s57.349-25.78,57.349-57.348c0-10.523-2.841-20.519-7.892-28.937h127.745c-5.051,8.523-7.892,18.415-7.892,28.937
		c0,31.673,25.781,57.348,57.349,57.348s57.348-25.78,57.348-57.348s-25.781-57.349-57.348-57.349H153.703
		c-16.415,0-29.674-13.364-29.674-29.674v-38.513C132.658,334.167,142.865,337.113,153.703,337.113z M224.416,454.546
		c0,15.994-13.048,28.937-28.937,28.937s-28.937-13.048-28.937-28.937s13.048-28.937,28.937-28.937S224.416,438.552,224.416,454.546
		z M451.074,454.546c0,15.994-13.048,28.937-28.937,28.937S393.2,470.435,393.2,454.546s13.048-28.937,28.937-28.937
		S451.074,438.552,451.074,454.546z M435.816,308.702H153.703c-16.415,0-29.674-13.364-29.674-29.674v-69.976v-78.289v-5.261
		l341.46,47.036v106.384C465.49,295.444,452.126,308.702,435.816,308.702z"/>
</g>
</svg>
