<svg xmlns="http://www.w3.org/2000/svg" width="19.97" height="17" viewBox="0 0 19.97 17">
  <metadata><?xpacket begin="﻿" id="W5M0MpCehiHzreSzNTczkc9d"?>
<x:xmpmeta xmlns:x="adobe:ns:meta/" x:xmptk="Adobe XMP Core 5.6-c142 79.160924, 2017/07/13-01:06:39        ">
   <rdf:RDF xmlns:rdf="http://www.w3.org/1999/02/22-rdf-syntax-ns#">
      <rdf:Description rdf:about=""/>
   </rdf:RDF>
</x:xmpmeta>
                                                                                                    
                                                                                                    
                                                                                                    
                                                                                                    
                                                                                                    
                                                                                                    
                                                                                                    
                                                                                                    
                                                                                                    
                                                                                                    
                                                                                                    
                                                                                                    
                                                                                                    
                                                                                                    
                                                                                                    
                                                                                                    
                                                                                                    
                                                                                                    
                                                                                                    
                                                                                                    
                           
<?xpacket end="w"?></metadata>
<defs>
    <style>
      .cls-1 {
        fill: #b3b6b9;
        fill-rule: evenodd;
      }
    </style>
  </defs>
  <path id="Shape_2_copy" data-name="Shape 2 copy" class="cls-1" d="M1888.71,6037.07l-18.28,7.19a0.672,0.672,0,0,0,.05,1.27l4.65,1.38,1.73,5.56a0.8,0.8,0,0,0,1.33.32l2.41-2.48,4.71,3.5a0.988,0.988,0,0,0,1.55-.6l3.12-15.07a0.944,0.944,0,0,0-1.27-1.07h0Zm-2.29,3.34-8.49,7.58a0.435,0.435,0,0,0-.15.29l-0.33,2.94a0.086,0.086,0,0,1-.17.01l-1.35-4.37a0.465,0.465,0,0,1,.2-0.53l10.03-6.28a0.223,0.223,0,0,1,.26.36h0Zm0,0" transform="translate(-1870 -6037)"/>
</svg>
