<?xml version="1.0" encoding="utf-8"?>
<!-- Generator: Adobe Illustrator 17.0.0, SVG Export Plug-In . SVG Version: 6.00 Build 0)  -->
<!DOCTYPE svg PUBLIC "-//W3C//DTD SVG 1.1//EN" "http://www.w3.org/Graphics/SVG/1.1/DTD/svg11.dtd">
<svg version="1.1" id="Layer_1" xmlns="http://www.w3.org/2000/svg" xmlns:xlink="http://www.w3.org/1999/xlink" x="0px" y="0px"
	 width="512px" height="512px" viewBox="0 0 512 512" enable-background="new 0 0 512 512" xml:space="preserve">
<g id="User">
	<g>
		<path fill="#1E2D41" d="M475.8,368.048c-15.112-15.108-40.4-28.296-80.264-48.236c-20.096-10.048-53.544-26.764-61.652-34.42
			c33.956-41.736,53.664-88.876,53.664-130.14c0-28,0-62.844-15.672-93.92C357.748,33.344,326.176,0,256.008,0
			C185.824,0,154.252,33.344,140.14,61.328c-15.692,31.08-15.692,65.92-15.692,93.92c0,41.28,19.692,88.408,53.668,130.14
			c-8.128,7.672-41.572,24.392-61.668,34.42c-39.852,19.936-65.14,33.124-80.264,48.236c-33.476,33.5-36.008,89.704-36.18,100.64
			c-0.172,11.408,4.236,22.436,12.268,30.592c8,8.124,18.972,12.72,30.38,12.72h426.676c11.44,0,22.384-4.592,30.4-12.72
			c8.016-8.156,12.44-19.188,12.268-30.608C511.824,457.752,509.272,401.548,475.8,368.048z M476.94,476.812
			c-2.032,2.048-4.736,3.188-7.612,3.188H42.652c-2.828,0-5.592-1.156-7.58-3.188c-1.984-2.016-3.108-4.796-3.08-7.64
			c0.092-5.36,1.564-53.22,26.82-78.484c11.66-11.656,36.068-24.296,71.952-42.252c38.304-19.14,59.544-30.548,69.328-39.796
			l21.596-20.42l-18.752-23.032c-29.536-36.28-46.492-76.36-46.492-109.936c0-25.892,0-55.22,12.252-79.5
			C183.368,46.72,212.716,32,256.008,32c43.256,0,72.636,14.72,87.296,43.736c12.252,24.296,12.252,53.624,12.252,79.516
			c0,33.564-16.94,73.64-46.512,109.936l-18.752,23.048l21.6,20.408c9.78,9.236,31.004,20.64,69.324,39.796
			c35.884,17.936,60.292,30.58,71.952,42.252c20.552,20.548,26.536,59,26.816,78.484
			C480.036,472.016,478.924,474.796,476.94,476.812z"/>
	</g>
</g>
</svg>
