<?xml version="1.0" encoding="utf-8"?>
<!-- Generator: Adobe Illustrator 17.0.0, SVG Export Plug-In . SVG Version: 6.00 Build 0)  -->
<!DOCTYPE svg PUBLIC "-//W3C//DTD SVG 1.1//EN" "http://www.w3.org/Graphics/SVG/1.1/DTD/svg11.dtd">
<svg version="1.1" id="Layer_1" xmlns="http://www.w3.org/2000/svg" xmlns:xlink="http://www.w3.org/1999/xlink" x="0px" y="0px"
	 width="61px" height="62px" viewBox="0 0 331.515 334.876" enable-background="new 0 0 331.515 334.876"
	 xml:space="preserve">
<g>
	<path fill="#3876E1" d="M331.515,155.999h-16.067V82.09c0-17.719-14.415-32.134-32.134-32.134h-21.761L239.284,9.917
		C235.89,3.798,229.431,0,222.426,0c-3.265,0-6.504,0.842-9.364,2.429l-85.464,47.526H32.134C14.415,49.955,0,64.37,0,82.089
		v220.653c0,17.719,14.415,32.134,32.134,32.134h251.18c17.719,0,32.134-14.415,32.134-32.134V237.94h16.067V155.999z
		 M283.314,62.809c9.897,0,17.982,7.519,19.068,17.14H278.23l-9.525-17.14H283.314z M219.315,13.663
		c3.014-1.69,7.07-0.508,8.735,2.494l35.475,63.786H100.117L219.315,13.663z M302.594,302.742c0,10.63-8.651,19.281-19.281,19.281
		H32.134c-10.63,0-19.281-8.651-19.281-19.281V82.09c0-10.63,8.651-19.281,19.281-19.281h72.353L73.664,79.95H36.151
		c-3.554,0-6.427,2.879-6.427,6.427s2.873,6.427,6.427,6.427h14.396h234.83h17.217v63.201h-46.999
		c-21.826,0-39.588,17.763-39.588,39.589v2.764c0,21.826,17.763,39.589,39.588,39.589h46.999V302.742z M318.661,225.087h-3.213
		h-59.853c-14.743,0-26.736-11.992-26.736-26.736v-2.764c0-14.743,11.992-26.736,26.736-26.736h59.853h3.213V225.087z
		 M275.28,197.497c0,7.841-6.35,14.189-14.189,14.189c-7.842,0-14.191-6.349-14.191-14.189c0-7.84,6.35-14.19,14.191-14.19
		C268.931,183.306,275.28,189.662,275.28,197.497"/>
</g>
</svg>
