<svg xmlns="http://www.w3.org/2000/svg" width="25" height="25" viewBox="0 0 25 25">
  <metadata><?xpacket begin="﻿" id="W5M0MpCehiHzreSzNTczkc9d"?>
<x:xmpmeta xmlns:x="adobe:ns:meta/" x:xmptk="Adobe XMP Core 5.6-c142 79.160924, 2017/07/13-01:06:39        ">
   <rdf:RDF xmlns:rdf="http://www.w3.org/1999/02/22-rdf-syntax-ns#">
      <rdf:Description rdf:about=""/>
   </rdf:RDF>
</x:xmpmeta>
                                                                                                    
                                                                                                    
                                                                                                    
                                                                                                    
                                                                                                    
                                                                                                    
                                                                                                    
                                                                                                    
                                                                                                    
                                                                                                    
                                                                                                    
                                                                                                    
                                                                                                    
                                                                                                    
                                                                                                    
                                                                                                    
                                                                                                    
                                                                                                    
                                                                                                    
                                                                                                    
                           
<?xpacket end="w"?></metadata>
<defs>
    <style>
      .cls-1 {
        fill: #1e2d41;
        fill-rule: evenodd;
      }
    </style>
  </defs>
  <path id="Forma_1_copy_2" data-name="Forma 1 copy 2" class="cls-1" d="M349.5,641.833a2.917,2.917,0,1,0-2.917-2.917A2.921,2.921,0,0,0,349.5,641.833Zm0-5a2.083,2.083,0,1,1-2.083,2.083A2.085,2.085,0,0,1,349.5,636.833Zm-0.074,16.982,6.392-9.232a9.1,9.1,0,0,0-.742-11.243,7.989,7.989,0,0,0-11.3,0,9.1,9.1,0,0,0-.751,11.23Zm-5.061-19.886a7.158,7.158,0,0,1,10.122,0,8.225,8.225,0,0,1,.655,10.166l-5.716,8.256-5.725-8.268A8.223,8.223,0,0,1,344.365,633.929Zm10.184,14.99a0.417,0.417,0,1,0-.1.828c4.382,0.515,6.716,1.905,6.716,2.711,0,1.131-4.439,2.708-11.667,2.708s-11.667-1.577-11.667-2.708c0-.806,2.334-2.2,6.716-2.711a0.417,0.417,0,0,0-.1-0.828c-4.387.517-7.451,1.972-7.451,3.539,0,1.76,4.294,3.541,12.5,3.541s12.5-1.781,12.5-3.541C362,650.891,358.936,649.436,354.549,648.919Z" transform="translate(-337 -631)"/>
</svg>
